<?xml version="1.0" standalone="no"?><!DOCTYPE svg PUBLIC "-//W3C//DTD SVG 1.1//EN" "http://www.w3.org/Graphics/SVG/1.1/DTD/svg11.dtd">
<svg x="0.0000mm" y="0.0000mm" width="72.4960mm" height="21.4310mm" viewBox="0.0000 0.0000 72.4960 21.4310" version="1.1" xmlns="http://www.w3.org/2000/svg" shape-rendering="crispEdges">
<title>TBarCode - 11.17.1.16949</title>
<desc>BarCode licensed to MEM:TEC-IT Datenverarbeitung GmbH Internal License</desc>
<g fill="rgb(0%,0%,0%)">
</g>
<g fill="rgb(100%,100%,100%)">
<rect x="0.0000" y="0.0000" width="72.4960" height="21.4310" />
</g>
<g fill="rgb(0%,0%,0%)">
</g>
<g fill="rgb(0%,0%,0%)">
<rect x="0.0000" y="0.0000" width="4.2333" height="2.3812" />
<rect x="4.7625" y="0.0000" width="0.5292" height="2.3812" />
<rect x="5.8208" y="0.0000" width="0.5292" height="2.3812" />
<rect x="6.8792" y="0.0000" width="0.5292" height="2.3812" />
<rect x="8.9959" y="0.0000" width="2.6458" height="2.3812" />
<rect x="12.1709" y="0.0000" width="0.5292" height="2.3812" />
<rect x="13.2292" y="0.0000" width="0.5292" height="2.3812" />
<rect x="14.2875" y="0.0000" width="2.6458" height="2.3812" />
<rect x="17.9917" y="0.0000" width="1.0583" height="2.3812" />
<rect x="19.5792" y="0.0000" width="0.5292" height="2.3812" />
<rect x="20.6375" y="0.0000" width="1.5875" height="2.3812" />
<rect x="23.8126" y="0.0000" width="2.1167" height="2.3812" />
<rect x="26.9876" y="0.0000" width="1.5875" height="2.3812" />
<rect x="29.6334" y="0.0000" width="0.5292" height="2.3812" />
<rect x="30.6917" y="0.0000" width="0.5292" height="2.3812" />
<rect x="32.2792" y="0.0000" width="1.5875" height="2.3812" />
<rect x="35.9834" y="0.0000" width="1.0583" height="2.3812" />
<rect x="37.5709" y="0.0000" width="0.5292" height="2.3812" />
<rect x="39.6876" y="0.0000" width="0.5292" height="2.3812" />
<rect x="41.2751" y="0.0000" width="1.0583" height="2.3812" />
<rect x="44.9793" y="0.0000" width="1.0583" height="2.3812" />
<rect x="48.6834" y="0.0000" width="0.5292" height="2.3812" />
<rect x="49.7418" y="0.0000" width="0.5292" height="2.3812" />
<rect x="51.3293" y="0.0000" width="1.0583" height="2.3812" />
<rect x="53.9751" y="0.0000" width="1.5875" height="2.3812" />
<rect x="56.0918" y="0.0000" width="0.5292" height="2.3812" />
<rect x="57.1501" y="0.0000" width="0.5292" height="2.3812" />
<rect x="58.7376" y="0.0000" width="1.5875" height="2.3812" />
<rect x="62.9710" y="0.0000" width="3.7042" height="2.3812" />
<rect x="67.2043" y="0.0000" width="0.5292" height="2.3812" />
<rect x="69.3210" y="0.0000" width="0.5292" height="2.3812" />
<rect x="70.3793" y="0.0000" width="0.5292" height="2.3812" />
<rect x="71.9668" y="0.0000" width="0.5292" height="2.3812" />
</g>
<g fill="rgb(0%,0%,0%)">
<rect x="0.0000" y="2.3812" width="4.2333" height="2.3812" />
<rect x="4.7625" y="2.3812" width="0.5292" height="2.3812" />
<rect x="5.8208" y="2.3812" width="0.5292" height="2.3812" />
<rect x="6.8792" y="2.3812" width="0.5292" height="2.3812" />
<rect x="8.9959" y="2.3812" width="2.1167" height="2.3812" />
<rect x="11.6417" y="2.3812" width="0.5292" height="2.3812" />
<rect x="12.7000" y="2.3812" width="0.5292" height="2.3812" />
<rect x="15.3459" y="2.3812" width="0.5292" height="2.3812" />
<rect x="17.9917" y="2.3812" width="1.5875" height="2.3812" />
<rect x="20.1084" y="2.3812" width="1.5875" height="2.3812" />
<rect x="22.2251" y="2.3812" width="2.1167" height="2.3812" />
<rect x="25.9292" y="2.3812" width="0.5292" height="2.3812" />
<rect x="26.9876" y="2.3812" width="2.6458" height="2.3812" />
<rect x="30.1626" y="2.3812" width="0.5292" height="2.3812" />
<rect x="31.2209" y="2.3812" width="0.5292" height="2.3812" />
<rect x="33.8667" y="2.3812" width="1.0583" height="2.3812" />
<rect x="35.9834" y="2.3812" width="1.0583" height="2.3812" />
<rect x="37.5709" y="2.3812" width="0.5292" height="2.3812" />
<rect x="39.6876" y="2.3812" width="1.5875" height="2.3812" />
<rect x="41.8043" y="2.3812" width="0.5292" height="2.3812" />
<rect x="44.9793" y="2.3812" width="1.5875" height="2.3812" />
<rect x="49.2126" y="2.3812" width="0.5292" height="2.3812" />
<rect x="50.2709" y="2.3812" width="1.5875" height="2.3812" />
<rect x="52.3876" y="2.3812" width="1.0583" height="2.3812" />
<rect x="53.9751" y="2.3812" width="2.1167" height="2.3812" />
<rect x="56.6210" y="2.3812" width="0.5292" height="2.3812" />
<rect x="57.6793" y="2.3812" width="0.5292" height="2.3812" />
<rect x="59.2668" y="2.3812" width="0.5292" height="2.3812" />
<rect x="62.9710" y="2.3812" width="3.7042" height="2.3812" />
<rect x="67.2043" y="2.3812" width="0.5292" height="2.3812" />
<rect x="69.3210" y="2.3812" width="0.5292" height="2.3812" />
<rect x="70.3793" y="2.3812" width="0.5292" height="2.3812" />
<rect x="71.9668" y="2.3812" width="0.5292" height="2.3812" />
</g>
<g fill="rgb(0%,0%,0%)">
<rect x="0.0000" y="4.7624" width="4.2333" height="2.3812" />
<rect x="4.7625" y="4.7624" width="0.5292" height="2.3812" />
<rect x="5.8208" y="4.7624" width="0.5292" height="2.3812" />
<rect x="6.8792" y="4.7624" width="0.5292" height="2.3812" />
<rect x="8.9959" y="4.7624" width="1.0583" height="2.3812" />
<rect x="10.5834" y="4.7624" width="0.5292" height="2.3812" />
<rect x="11.6417" y="4.7624" width="0.5292" height="2.3812" />
<rect x="13.2292" y="4.7624" width="2.6458" height="2.3812" />
<rect x="17.9917" y="4.7624" width="0.5292" height="2.3812" />
<rect x="20.1084" y="4.7624" width="1.0583" height="2.3812" />
<rect x="22.2251" y="4.7624" width="0.5292" height="2.3812" />
<rect x="24.3417" y="4.7624" width="1.5875" height="2.3812" />
<rect x="26.9876" y="4.7624" width="1.0583" height="2.3812" />
<rect x="28.5751" y="4.7624" width="3.1750" height="2.3812" />
<rect x="32.2792" y="4.7624" width="1.0583" height="2.3812" />
<rect x="33.8667" y="4.7624" width="0.5292" height="2.3812" />
<rect x="35.9834" y="4.7624" width="0.5292" height="2.3812" />
<rect x="37.5709" y="4.7624" width="3.1750" height="2.3812" />
<rect x="41.8043" y="4.7624" width="1.5875" height="2.3812" />
<rect x="43.9209" y="4.7624" width="0.5292" height="2.3812" />
<rect x="44.9793" y="4.7624" width="0.5292" height="2.3812" />
<rect x="46.0376" y="4.7624" width="1.0583" height="2.3812" />
<rect x="48.1543" y="4.7624" width="0.5292" height="2.3812" />
<rect x="51.8585" y="4.7624" width="1.5875" height="2.3812" />
<rect x="53.9751" y="4.7624" width="0.5292" height="2.3812" />
<rect x="55.0335" y="4.7624" width="0.5292" height="2.3812" />
<rect x="56.0918" y="4.7624" width="0.5292" height="2.3812" />
<rect x="58.7376" y="4.7624" width="2.1167" height="2.3812" />
<rect x="62.9710" y="4.7624" width="3.7042" height="2.3812" />
<rect x="67.2043" y="4.7624" width="0.5292" height="2.3812" />
<rect x="69.3210" y="4.7624" width="0.5292" height="2.3812" />
<rect x="70.3793" y="4.7624" width="0.5292" height="2.3812" />
<rect x="71.9668" y="4.7624" width="0.5292" height="2.3812" />
</g>
<g fill="rgb(0%,0%,0%)">
<rect x="0.0000" y="7.1437" width="4.2333" height="2.3812" />
<rect x="4.7625" y="7.1437" width="0.5292" height="2.3812" />
<rect x="5.8208" y="7.1437" width="0.5292" height="2.3812" />
<rect x="6.8792" y="7.1437" width="0.5292" height="2.3812" />
<rect x="8.9959" y="7.1437" width="1.0583" height="2.3812" />
<rect x="10.5834" y="7.1437" width="0.5292" height="2.3812" />
<rect x="11.6417" y="7.1437" width="2.1167" height="2.3812" />
<rect x="14.8167" y="7.1437" width="2.6458" height="2.3812" />
<rect x="17.9917" y="7.1437" width="0.5292" height="2.3812" />
<rect x="19.0500" y="7.1437" width="0.5292" height="2.3812" />
<rect x="20.6375" y="7.1437" width="1.5875" height="2.3812" />
<rect x="22.7542" y="7.1437" width="1.5875" height="2.3812" />
<rect x="26.9876" y="7.1437" width="1.0583" height="2.3812" />
<rect x="28.5751" y="7.1437" width="1.5875" height="2.3812" />
<rect x="30.6917" y="7.1437" width="1.0583" height="2.3812" />
<rect x="33.8667" y="7.1437" width="0.5292" height="2.3812" />
<rect x="35.9834" y="7.1437" width="0.5292" height="2.3812" />
<rect x="38.1001" y="7.1437" width="0.5292" height="2.3812" />
<rect x="41.8043" y="7.1437" width="0.5292" height="2.3812" />
<rect x="43.9209" y="7.1437" width="0.5292" height="2.3812" />
<rect x="44.9793" y="7.1437" width="1.0583" height="2.3812" />
<rect x="46.5668" y="7.1437" width="1.0583" height="2.3812" />
<rect x="49.7418" y="7.1437" width="0.5292" height="2.3812" />
<rect x="52.9168" y="7.1437" width="0.5292" height="2.3812" />
<rect x="53.9751" y="7.1437" width="0.5292" height="2.3812" />
<rect x="55.0335" y="7.1437" width="0.5292" height="2.3812" />
<rect x="56.0918" y="7.1437" width="2.6458" height="2.3812" />
<rect x="59.2668" y="7.1437" width="2.6458" height="2.3812" />
<rect x="62.9710" y="7.1437" width="3.7042" height="2.3812" />
<rect x="67.2043" y="7.1437" width="0.5292" height="2.3812" />
<rect x="69.3210" y="7.1437" width="0.5292" height="2.3812" />
<rect x="70.3793" y="7.1437" width="0.5292" height="2.3812" />
<rect x="71.9668" y="7.1437" width="0.5292" height="2.3812" />
</g>
<g fill="rgb(0%,0%,0%)">
<rect x="0.0000" y="9.5249" width="4.2333" height="2.3812" />
<rect x="4.7625" y="9.5249" width="0.5292" height="2.3812" />
<rect x="5.8208" y="9.5249" width="0.5292" height="2.3812" />
<rect x="6.8792" y="9.5249" width="0.5292" height="2.3812" />
<rect x="8.9959" y="9.5249" width="1.0583" height="2.3812" />
<rect x="10.5834" y="9.5249" width="0.5292" height="2.3812" />
<rect x="11.6417" y="9.5249" width="1.5875" height="2.3812" />
<rect x="15.8750" y="9.5249" width="0.5292" height="2.3812" />
<rect x="17.9917" y="9.5249" width="1.5875" height="2.3812" />
<rect x="21.1667" y="9.5249" width="0.5292" height="2.3812" />
<rect x="23.2834" y="9.5249" width="1.0583" height="2.3812" />
<rect x="24.8709" y="9.5249" width="0.5292" height="2.3812" />
<rect x="26.9876" y="9.5249" width="1.0583" height="2.3812" />
<rect x="28.5751" y="9.5249" width="0.5292" height="2.3812" />
<rect x="31.2209" y="9.5249" width="1.5875" height="2.3812" />
<rect x="33.8667" y="9.5249" width="0.5292" height="2.3812" />
<rect x="35.9834" y="9.5249" width="1.5875" height="2.3812" />
<rect x="38.1001" y="9.5249" width="0.5292" height="2.3812" />
<rect x="39.6876" y="9.5249" width="1.5875" height="2.3812" />
<rect x="42.3334" y="9.5249" width="1.0583" height="2.3812" />
<rect x="44.9793" y="9.5249" width="2.1167" height="2.3812" />
<rect x="49.7418" y="9.5249" width="0.5292" height="2.3812" />
<rect x="50.8001" y="9.5249" width="0.5292" height="2.3812" />
<rect x="51.8585" y="9.5249" width="0.5292" height="2.3812" />
<rect x="53.9751" y="9.5249" width="2.1167" height="2.3812" />
<rect x="56.6210" y="9.5249" width="0.5292" height="2.3812" />
<rect x="57.6793" y="9.5249" width="1.5875" height="2.3812" />
<rect x="60.3251" y="9.5249" width="1.5875" height="2.3812" />
<rect x="62.9710" y="9.5249" width="3.7042" height="2.3812" />
<rect x="67.2043" y="9.5249" width="0.5292" height="2.3812" />
<rect x="69.3210" y="9.5249" width="0.5292" height="2.3812" />
<rect x="70.3793" y="9.5249" width="0.5292" height="2.3812" />
<rect x="71.9668" y="9.5249" width="0.5292" height="2.3812" />
</g>
<g fill="rgb(0%,0%,0%)">
<rect x="0.0000" y="11.9061" width="4.2333" height="2.3812" />
<rect x="4.7625" y="11.9061" width="0.5292" height="2.3812" />
<rect x="5.8208" y="11.9061" width="0.5292" height="2.3812" />
<rect x="6.8792" y="11.9061" width="0.5292" height="2.3812" />
<rect x="8.9959" y="11.9061" width="2.1167" height="2.3812" />
<rect x="11.6417" y="11.9061" width="0.5292" height="2.3812" />
<rect x="12.7000" y="11.9061" width="2.1167" height="2.3812" />
<rect x="15.8750" y="11.9061" width="0.5292" height="2.3812" />
<rect x="17.9917" y="11.9061" width="0.5292" height="2.3812" />
<rect x="19.0500" y="11.9061" width="1.5875" height="2.3812" />
<rect x="22.2251" y="11.9061" width="1.5875" height="2.3812" />
<rect x="24.3417" y="11.9061" width="2.1167" height="2.3812" />
<rect x="26.9876" y="11.9061" width="0.5292" height="2.3812" />
<rect x="29.1042" y="11.9061" width="1.0583" height="2.3812" />
<rect x="31.2209" y="11.9061" width="1.0583" height="2.3812" />
<rect x="33.3376" y="11.9061" width="2.1167" height="2.3812" />
<rect x="35.9834" y="11.9061" width="0.5292" height="2.3812" />
<rect x="37.5709" y="11.9061" width="2.6458" height="2.3812" />
<rect x="40.7459" y="11.9061" width="1.0583" height="2.3812" />
<rect x="42.3334" y="11.9061" width="0.5292" height="2.3812" />
<rect x="44.9793" y="11.9061" width="0.5292" height="2.3812" />
<rect x="47.0959" y="11.9061" width="1.5875" height="2.3812" />
<rect x="49.2126" y="11.9061" width="0.5292" height="2.3812" />
<rect x="52.3876" y="11.9061" width="1.0583" height="2.3812" />
<rect x="53.9751" y="11.9061" width="2.1167" height="2.3812" />
<rect x="56.6210" y="11.9061" width="0.5292" height="2.3812" />
<rect x="57.6793" y="11.9061" width="2.6458" height="2.3812" />
<rect x="60.8543" y="11.9061" width="1.0583" height="2.3812" />
<rect x="62.9710" y="11.9061" width="3.7042" height="2.3812" />
<rect x="67.2043" y="11.9061" width="0.5292" height="2.3812" />
<rect x="69.3210" y="11.9061" width="0.5292" height="2.3812" />
<rect x="70.3793" y="11.9061" width="0.5292" height="2.3812" />
<rect x="71.9668" y="11.9061" width="0.5292" height="2.3812" />
</g>
<g fill="rgb(0%,0%,0%)">
<rect x="0.0000" y="14.2873" width="4.2333" height="2.3812" />
<rect x="4.7625" y="14.2873" width="0.5292" height="2.3812" />
<rect x="5.8208" y="14.2873" width="0.5292" height="2.3812" />
<rect x="6.8792" y="14.2873" width="0.5292" height="2.3812" />
<rect x="8.9959" y="14.2873" width="1.5875" height="2.3812" />
<rect x="11.1125" y="14.2873" width="0.5292" height="2.3812" />
<rect x="12.7000" y="14.2873" width="1.5875" height="2.3812" />
<rect x="14.8167" y="14.2873" width="2.6458" height="2.3812" />
<rect x="17.9917" y="14.2873" width="1.5875" height="2.3812" />
<rect x="20.1084" y="14.2873" width="2.1167" height="2.3812" />
<rect x="22.7542" y="14.2873" width="1.0583" height="2.3812" />
<rect x="25.9292" y="14.2873" width="0.5292" height="2.3812" />
<rect x="26.9876" y="14.2873" width="2.1167" height="2.3812" />
<rect x="29.6334" y="14.2873" width="1.0583" height="2.3812" />
<rect x="31.2209" y="14.2873" width="0.5292" height="2.3812" />
<rect x="33.3376" y="14.2873" width="1.5875" height="2.3812" />
<rect x="35.9834" y="14.2873" width="0.5292" height="2.3812" />
<rect x="38.6293" y="14.2873" width="1.0583" height="2.3812" />
<rect x="41.2751" y="14.2873" width="1.0583" height="2.3812" />
<rect x="43.3918" y="14.2873" width="0.5292" height="2.3812" />
<rect x="44.9793" y="14.2873" width="0.5292" height="2.3812" />
<rect x="47.6251" y="14.2873" width="1.0583" height="2.3812" />
<rect x="50.2709" y="14.2873" width="1.0583" height="2.3812" />
<rect x="52.3876" y="14.2873" width="0.5292" height="2.3812" />
<rect x="53.9751" y="14.2873" width="0.5292" height="2.3812" />
<rect x="55.0335" y="14.2873" width="0.5292" height="2.3812" />
<rect x="56.6210" y="14.2873" width="1.5875" height="2.3812" />
<rect x="59.2668" y="14.2873" width="1.5875" height="2.3812" />
<rect x="62.9710" y="14.2873" width="3.7042" height="2.3812" />
<rect x="67.2043" y="14.2873" width="0.5292" height="2.3812" />
<rect x="69.3210" y="14.2873" width="0.5292" height="2.3812" />
<rect x="70.3793" y="14.2873" width="0.5292" height="2.3812" />
<rect x="71.9668" y="14.2873" width="0.5292" height="2.3812" />
</g>
<g fill="rgb(0%,0%,0%)">
<rect x="0.0000" y="16.6686" width="4.2333" height="2.3812" />
<rect x="4.7625" y="16.6686" width="0.5292" height="2.3812" />
<rect x="5.8208" y="16.6686" width="0.5292" height="2.3812" />
<rect x="6.8792" y="16.6686" width="0.5292" height="2.3812" />
<rect x="8.9959" y="16.6686" width="3.1750" height="2.3812" />
<rect x="12.7000" y="16.6686" width="0.5292" height="2.3812" />
<rect x="14.2875" y="16.6686" width="0.5292" height="2.3812" />
<rect x="15.3459" y="16.6686" width="1.5875" height="2.3812" />
<rect x="17.9917" y="16.6686" width="2.1167" height="2.3812" />
<rect x="21.1667" y="16.6686" width="1.0583" height="2.3812" />
<rect x="24.3417" y="16.6686" width="1.0583" height="2.3812" />
<rect x="25.9292" y="16.6686" width="0.5292" height="2.3812" />
<rect x="26.9876" y="16.6686" width="2.6458" height="2.3812" />
<rect x="30.1626" y="16.6686" width="1.0583" height="2.3812" />
<rect x="32.2792" y="16.6686" width="1.0583" height="2.3812" />
<rect x="34.3959" y="16.6686" width="1.0583" height="2.3812" />
<rect x="35.9834" y="16.6686" width="2.1167" height="2.3812" />
<rect x="40.2168" y="16.6686" width="0.5292" height="2.3812" />
<rect x="41.8043" y="16.6686" width="0.5292" height="2.3812" />
<rect x="42.8626" y="16.6686" width="0.5292" height="2.3812" />
<rect x="44.9793" y="16.6686" width="2.1167" height="2.3812" />
<rect x="48.1543" y="16.6686" width="0.5292" height="2.3812" />
<rect x="49.2126" y="16.6686" width="1.5875" height="2.3812" />
<rect x="51.3293" y="16.6686" width="1.5875" height="2.3812" />
<rect x="53.9751" y="16.6686" width="0.5292" height="2.3812" />
<rect x="55.0335" y="16.6686" width="0.5292" height="2.3812" />
<rect x="56.0918" y="16.6686" width="3.1750" height="2.3812" />
<rect x="59.7960" y="16.6686" width="1.5875" height="2.3812" />
<rect x="62.9710" y="16.6686" width="3.7042" height="2.3812" />
<rect x="67.2043" y="16.6686" width="0.5292" height="2.3812" />
<rect x="69.3210" y="16.6686" width="0.5292" height="2.3812" />
<rect x="70.3793" y="16.6686" width="0.5292" height="2.3812" />
<rect x="71.9668" y="16.6686" width="0.5292" height="2.3812" />
</g>
<g fill="rgb(0%,0%,0%)">
<rect x="0.0000" y="19.0498" width="4.2333" height="2.3812" />
<rect x="4.7625" y="19.0498" width="0.5292" height="2.3812" />
<rect x="5.8208" y="19.0498" width="0.5292" height="2.3812" />
<rect x="6.8792" y="19.0498" width="0.5292" height="2.3812" />
<rect x="8.9959" y="19.0498" width="0.5292" height="2.3812" />
<rect x="10.0542" y="19.0498" width="0.5292" height="2.3812" />
<rect x="11.6417" y="19.0498" width="1.0583" height="2.3812" />
<rect x="13.7584" y="19.0498" width="2.6458" height="2.3812" />
<rect x="17.9917" y="19.0498" width="0.5292" height="2.3812" />
<rect x="19.0500" y="19.0498" width="0.5292" height="2.3812" />
<rect x="20.1084" y="19.0498" width="0.5292" height="2.3812" />
<rect x="22.2251" y="19.0498" width="2.1167" height="2.3812" />
<rect x="26.9876" y="19.0498" width="0.5292" height="2.3812" />
<rect x="28.0459" y="19.0498" width="2.1167" height="2.3812" />
<rect x="30.6917" y="19.0498" width="2.1167" height="2.3812" />
<rect x="33.3376" y="19.0498" width="2.1167" height="2.3812" />
<rect x="35.9834" y="19.0498" width="0.5292" height="2.3812" />
<rect x="37.0418" y="19.0498" width="1.0583" height="2.3812" />
<rect x="39.6876" y="19.0498" width="0.5292" height="2.3812" />
<rect x="42.8626" y="19.0498" width="1.5875" height="2.3812" />
<rect x="44.9793" y="19.0498" width="1.0583" height="2.3812" />
<rect x="47.0959" y="19.0498" width="2.6458" height="2.3812" />
<rect x="50.8001" y="19.0498" width="0.5292" height="2.3812" />
<rect x="51.8585" y="19.0498" width="0.5292" height="2.3812" />
<rect x="53.9751" y="19.0498" width="2.6458" height="2.3812" />
<rect x="57.1501" y="19.0498" width="0.5292" height="2.3812" />
<rect x="58.7376" y="19.0498" width="1.5875" height="2.3812" />
<rect x="60.8543" y="19.0498" width="0.5292" height="2.3812" />
<rect x="62.9710" y="19.0498" width="3.7042" height="2.3812" />
<rect x="67.2043" y="19.0498" width="0.5292" height="2.3812" />
<rect x="69.3210" y="19.0498" width="0.5292" height="2.3812" />
<rect x="70.3793" y="19.0498" width="0.5292" height="2.3812" />
<rect x="71.9668" y="19.0498" width="0.5292" height="2.3812" />
</g>
</svg>
