<?xml version="1.0" encoding="utf-8" ?>
<svg xmlns="http://www.w3.org/2000/svg" xmlns:xlink="http://www.w3.org/1999/xlink" width="1026" height="1026">
	<path fill="#0E312F" transform="matrix(2.052 0 0 2.052 6.10352e-05 0)" d="M214.065 154.037L214.633 154.261C215.207 153.918 215.729 153.548 216.402 153.444C215.636 154.848 214.808 156.199 213.95 157.549C213.864 156.583 214.059 155.688 213.626 154.772L214.065 154.037Z"/>
	<path fill="#021918" transform="matrix(2.052 0 0 2.052 6.10352e-05 0)" d="M289.082 141.511C289.064 141.075 289.05 140.789 289.214 140.373C289.374 139.966 289.577 139.987 289.951 139.813L293.764 141.281C293.38 141.831 293.029 142.404 292.513 142.84L291.457 142.466C290.75 142.037 289.86 141.797 289.082 141.511Z"/>
	<path fill="#123C34" transform="matrix(2.052 0 0 2.052 6.10352e-05 0)" d="M216.793 150.036L217.515 150.304C218.064 150.01 218.601 149.767 219.177 149.534C218.34 150.754 217.439 152.414 216.402 153.444C215.729 153.548 215.207 153.918 214.633 154.261L214.065 154.037C214.923 152.67 215.868 151.359 216.793 150.036Z"/>
	<path fill="#123C34" transform="matrix(2.052 0 0 2.052 6.10352e-05 0)" d="M257.041 123.552Q260.097 123.242 263.137 122.804C263.419 123.311 263.717 123.771 263.801 124.355C261.941 124.556 260.115 124.757 258.291 125.182C258.261 125.027 258.246 124.868 258.202 124.717C257.986 123.968 257.687 123.916 257.041 123.552Z"/>
	<defs>
		<linearGradient id="gradient_0" gradientUnits="userSpaceOnUse" x1="302.43027" y1="137.67688" x2="303.72775" y2="137.39691">
			<stop offset="0" stop-color="#17402E"/>
			<stop offset="1" stop-color="#1A3A39"/>
		</linearGradient>
	</defs>
	<path fill="url(#gradient_0)" transform="matrix(2.052 0 0 2.052 6.10352e-05 0)" d="M306.859 140.274C305.278 139.943 303.574 139.563 302.307 138.483C301.806 138.055 301.748 137.768 301.723 137.138C302.145 136.513 302.56 136.377 303.231 136.121C303.974 136.789 304.418 137.28 305.444 137.351L305.07 137.646L305.219 138.165L304.857 138.418C305.075 139.143 306.257 139.786 306.859 140.274Z"/>
	<path fill="#0E312F" transform="matrix(2.052 0 0 2.052 6.10352e-05 0)" d="M303.231 136.121C305.507 135.413 307.668 135.068 310.049 134.971C309.45 135.222 308.916 135.383 308.524 135.933C308.912 136.42 309.399 136.412 310.014 136.46C310.513 136.498 311.025 136.479 311.525 136.472C309.564 136.979 307.469 137.287 305.444 137.351C304.418 137.28 303.974 136.789 303.231 136.121Z"/>
	<path fill="#0E312F" transform="matrix(2.052 0 0 2.052 6.10352e-05 0)" d="M295.75 126.514C297.529 127.096 299.973 127.379 301.087 128.989L301.047 129.521C300.21 129.919 299.643 129.846 298.783 129.536C297.576 129.1 296.433 128.627 295.172 128.362C295.595 127.774 295.645 127.209 295.75 126.514Z"/>
	<path fill="#032C23" transform="matrix(2.052 0 0 2.052 6.10352e-05 0)" d="M322.272 137.351C322.147 136.446 321.896 135.347 322.446 134.58L322.548 137.247C324.118 138.519 325.721 139.751 327.288 141.027C326.623 141.608 326.574 141.842 325.65 141.779C325.617 141.777 325.584 141.768 325.55 141.763C324.15 140.862 322.819 139.719 321.7 138.488C322.15 138.04 322.154 137.98 322.272 137.351Z"/>
	<path fill="#0E312F" fill-opacity="0.98823529" transform="matrix(2.052 0 0 2.052 6.10352e-05 0)" d="M309.055 133.568C308.561 132.62 308.314 131.633 308.277 130.563C308.211 128.687 308.743 127.105 310.024 125.736C310.488 126.208 311.321 126.782 311.416 127.409L310.814 127.541C310.158 128.652 310.437 130.422 310.517 131.688C309.828 131.58 309.631 131.412 309.051 131.833C309.006 132.428 309.006 132.974 309.055 133.568Z"/>
	<path fill="#0E312F" transform="matrix(2.052 0 0 2.052 6.10352e-05 0)" d="M283.231 137.826C285.524 138.284 287.746 139.04 289.951 139.813C289.577 139.987 289.374 139.966 289.214 140.373C289.05 140.789 289.064 141.075 289.082 141.511C287.227 140.641 284.998 140.14 283.005 139.656C283.022 139.038 283.134 138.435 283.231 137.826Z"/>
	<path fill="#000703" transform="matrix(2.052 0 0 2.052 6.10352e-05 0)" d="M309.055 133.568C309.006 132.974 309.006 132.428 309.051 131.833C309.631 131.412 309.828 131.58 310.517 131.688C310.55 131.754 310.582 131.82 310.616 131.884C311.257 133.085 313.531 134.586 313.282 135.896C312.682 136.314 312.227 136.381 311.525 136.472C311.025 136.479 310.513 136.498 310.014 136.46C309.399 136.412 308.912 136.42 308.524 135.933C308.916 135.383 309.45 135.222 310.049 134.971L310.048 134.494L309.055 133.568Z"/>
	<path fill="#021918" transform="matrix(2.052 0 0 2.052 6.10352e-05 0)" d="M310.456 152.975C312.068 154.901 313.644 156.903 315.51 158.592L315.478 159.715C315.027 159.953 314.652 160.095 314.338 160.51C312.928 159.294 312.317 157.271 310.776 155.954L308.508 153.56C309.174 153.144 309.7 153.069 310.456 152.975Z"/>
	<path fill="#000703" transform="matrix(2.052 0 0 2.052 6.10352e-05 0)" d="M310.024 125.736C310.749 125.618 311.279 125.499 311.948 125.917C313.233 126.719 313.173 128.72 314.02 129.878C314.911 131.096 316.541 131.769 317.255 133.104C317.442 133.752 317.706 133.974 318.125 134.479C318.246 134.626 318.437 134.904 318.555 135.072L317.941 135.441C317.299 134.936 316.636 134.464 315.978 133.981C313.299 132.015 311.933 130.766 311.416 127.409C311.321 126.782 310.488 126.208 310.024 125.736Z"/>
	<path fill="#0E312F" transform="matrix(2.052 0 0 2.052 6.10352e-05 0)" d="M319.541 140.496C320.518 141.044 321.487 141.737 322.49 142.215Q323.07 142.454 323.659 142.671C324.385 142.934 325.259 143.26 326.001 142.92C326.077 142.327 325.868 142.246 325.55 141.763C325.584 141.768 325.617 141.777 325.65 141.779C326.574 141.842 326.623 141.608 327.288 141.027C327.877 141.666 328.171 142.089 328.423 142.926C328.285 143.536 328.204 143.849 327.625 144.172C326.042 145.054 323.795 144.634 322.177 144.107C320.376 143.07 318.682 141.939 316.716 141.231C317.928 141.265 318.552 141.254 319.541 140.496Z"/>
	<path fill="#0E312F" transform="matrix(2.052 0 0 2.052 6.10352e-05 0)" d="M216.793 150.036C219.344 146.189 222.576 142.704 225.85 139.47C225.836 140.213 225.727 141.033 225.922 141.748C223.594 144.285 221.463 146.967 219.177 149.534C218.601 149.767 218.064 150.01 217.515 150.304L216.793 150.036Z"/>
	<path fill="#021918" transform="matrix(2.052 0 0 2.052 6.10352e-05 0)" d="M305.219 138.165C309.036 139.006 316.517 138.821 319.541 140.496C318.552 141.254 317.928 141.265 316.716 141.231C313.438 140.844 310.135 140.698 306.859 140.274C306.257 139.786 305.075 139.143 304.857 138.418L305.219 138.165Z"/>
	<path fill="#123C34" transform="matrix(2.052 0 0 2.052 6.10352e-05 0)" d="M279.942 123.22C285.331 123.665 290.579 124.981 295.75 126.514C295.645 127.209 295.595 127.774 295.172 128.362C289.95 126.303 283.574 125.243 278.019 124.521C280.823 123.524 281.911 125.229 284.365 124.955C285.531 124.824 286.395 125.673 287.616 125.604L287.928 125.249C287.066 123.72 281.142 124.297 279.59 123.503L279.942 123.22Z"/>
	<path fill="#0E312F" transform="matrix(2.052 0 0 2.052 6.10352e-05 0)" d="M263.137 122.804C268.582 122.528 274.564 122.279 279.942 123.22L279.59 123.503C281.142 124.297 287.066 123.72 287.928 125.249L287.616 125.604C286.395 125.673 285.531 124.824 284.365 124.955C281.911 125.229 280.823 123.524 278.019 124.521C273.167 124.391 268.681 123.813 263.801 124.355C263.717 123.771 263.419 123.311 263.137 122.804Z"/>
	<path fill="#032C23" transform="matrix(2.052 0 0 2.052 6.10352e-05 0)" d="M266.59 136.784C271.99 136.406 277.961 136.422 283.231 137.826C283.134 138.435 283.022 139.038 283.005 139.656C277.741 138.258 272.128 138.071 266.719 138.435L266.57 138.062C265.295 137.923 264.548 137.812 263.355 138.375C262.7 138.684 261.172 137.976 260.669 138.353C260.266 138.654 260.609 138.922 259.958 139.125C259.6 138.866 259.411 138.743 258.961 138.671C258.849 138.653 258.735 138.647 258.622 138.634C260.732 137.57 264.322 138.084 266.248 136.99C266.364 136.924 266.476 136.852 266.59 136.784Z"/>
	<path fill="#021918" transform="matrix(2.052 0 0 2.052 6.10352e-05 0)" d="M319.189 130.088C319.652 129.422 320.023 129.027 320.669 128.537C321.042 128.507 321.171 128.406 321.485 128.663C322.243 129.282 322.491 130.685 322.528 131.618C322.567 132.599 322.497 133.6 322.446 134.58C321.896 135.347 322.147 136.446 322.272 137.351C322.154 137.98 322.15 138.04 321.7 138.488C320.379 137.663 319.143 136.444 317.941 135.441L318.555 135.072C318.437 134.904 318.246 134.626 318.125 134.479C317.706 133.974 317.442 133.752 317.255 133.104L317.986 132.962C318.677 132.169 318.886 131.077 319.189 130.088Z"/>
	<path fill="#032C23" transform="matrix(2.052 0 0 2.052 6.10352e-05 0)" d="M293.764 141.281L296.031 142.358C300.273 144.582 306.384 148.199 309.449 151.969C309.794 152.297 310.147 152.613 310.456 152.975C309.7 153.069 309.174 153.144 308.508 153.56C307.703 152.955 306.955 152.052 306.23 151.339C302.289 148.703 298.736 145.866 294.452 143.706L292.513 142.84C293.029 142.404 293.38 141.831 293.764 141.281Z"/>
	<path fill="#123C34" transform="matrix(2.052 0 0 2.052 6.10352e-05 0)" d="M243.977 127.376C248.224 125.523 252.53 124.494 257.041 123.552C257.687 123.916 257.986 123.968 258.202 124.717C258.246 124.868 258.261 125.027 258.291 125.182C253.916 125.982 249.897 127.339 245.658 128.593C242.341 129.941 238.964 131.412 235.99 133.424C235.027 134.138 234.073 134.836 233.052 135.466C230.732 137.651 228.149 139.427 225.922 141.748C225.727 141.033 225.836 140.213 225.85 139.47C228.082 136.98 231.282 134.715 234.025 132.841C234.85 132.104 235.684 131.608 236.661 131.094C237.72 129.768 242.288 128.042 243.977 127.376Z"/>
	<path fill="#123C34" transform="matrix(2.052 0 0 2.052 6.10352e-05 0)" d="M239.002 147.682C246.408 141.382 257.105 137.86 266.59 136.784C266.476 136.852 266.364 136.924 266.248 136.99C264.322 138.084 260.732 137.57 258.622 138.634C258.735 138.647 258.849 138.653 258.961 138.671C259.411 138.743 259.6 138.866 259.958 139.125C260.609 138.922 260.266 138.654 260.669 138.353C261.172 137.976 262.7 138.684 263.355 138.375C264.548 137.812 265.295 137.923 266.57 138.062L266.719 138.435C257.112 138.878 248.229 143.435 240.408 148.649C235.618 152.598 231.171 156.906 227.568 161.989C226.64 163.508 225.76 165.154 224.658 166.549C224.521 164.864 225.867 164.35 225.968 162.996C225.994 162.65 225.68 162.483 225.459 162.255C226.112 160.558 227.987 158.612 229.099 157.136C231.918 153.593 235.313 150.297 239.002 147.682Z"/>
	<path fill="#0FB981" transform="matrix(2.052 0 0 2.052 6.10352e-05 0)" d="M232.508 229.085C232.725 228.724 233.016 228.402 233.279 228.073C235.266 230.133 237.642 231.683 239.796 233.547C245.218 237.002 250.408 238.981 256.598 240.622C258.422 240.976 260.82 241.159 262.502 241.851L262.976 242.659C265.596 248.995 271.075 252.181 276.813 255.224C269.137 254.321 261.323 253.356 254.01 250.748C241.838 246.406 236.113 239.727 230.714 228.305C231.327 228.712 231.752 229.004 232.508 229.085Z"/>
	<path fill="#021918" transform="matrix(2.052 0 0 2.052 6.10352e-05 0)" d="M256.598 240.622C258.422 240.976 260.82 241.159 262.502 241.851L262.976 242.659C261.49 243.401 257.923 242.365 256.299 241.903C256.735 241.392 256.6 241.267 256.598 240.622Z"/>
	<path fill="#000703" transform="matrix(2.052 0 0 2.052 6.10352e-05 0)" d="M232.508 229.085C232.725 228.724 233.016 228.402 233.279 228.073C235.266 230.133 237.642 231.683 239.796 233.547L239.158 233.942L239.07 234.619C236.684 232.957 234.552 231.154 232.508 229.085Z"/>
	<path fill="#000703" transform="matrix(2.052 0 0 2.052 6.10352e-05 0)" d="M239.796 233.547C245.218 237.002 250.408 238.981 256.598 240.622C256.6 241.267 256.735 241.392 256.299 241.903C250.254 240.802 244.167 237.992 239.07 234.619L239.158 233.942L239.796 233.547Z"/>
	<path fill="#0FB981" transform="matrix(2.052 0 0 2.052 6.10352e-05 0)" d="M315.51 158.592C324.23 163.777 332.094 169.86 334.738 180.172C337.069 189.264 335.543 207.24 333.019 216.358Q332.2 219.373 330.966 222.244Q329.733 225.116 328.111 227.786C321.681 238.505 311.917 245.846 300.628 250.852C306.651 243.847 309.421 238.834 308.986 229.461L308.842 227.824C313.896 223.957 318.64 213.412 320.371 207.431C325.125 191 322.547 175.266 314.338 160.51C314.652 160.095 315.027 159.953 315.478 159.715L315.51 158.592Z"/>
	<path fill="#000703" transform="matrix(2.052 0 0 2.052 6.10352e-05 0)" d="M315.478 159.715C323.658 171.681 325.687 188.604 323.027 202.645Q322.748 204.153 322.382 205.642Q322.015 207.132 321.562 208.597Q321.108 210.062 320.57 211.498Q320.031 212.934 319.409 214.336Q318.787 215.738 318.084 217.101Q317.381 218.464 316.599 219.783Q315.817 221.102 314.958 222.373Q314.1 223.644 313.169 224.863C311.959 226.462 310.602 228.257 308.986 229.461L308.842 227.824C313.896 223.957 318.64 213.412 320.371 207.431C325.125 191 322.547 175.266 314.338 160.51C314.652 160.095 315.027 159.953 315.478 159.715Z"/>
	<path fill="#032C23" transform="matrix(2.052 0 0 2.052 6.10352e-05 0)" d="M280.436 212.605C285.665 211.678 292.481 213.168 296.818 216.221C300.778 219.009 303.364 222.919 304.129 227.718C304.865 232.333 303.808 237.261 301.05 241.059C297.458 246.005 292.578 248.093 286.71 249.024C280.613 249.75 273.772 248.789 268.859 244.861C265.226 241.956 262.536 237.599 262.069 232.925C261.593 228.161 262.945 223.155 266.032 219.462C269.609 215.183 275.016 213.133 280.436 212.605Z"/>
	<path fill="#032C23" transform="matrix(2.052 0 0 2.052 6.10352e-05 0)" d="M248.553 159.154C246.976 158.484 244.175 156.93 243.533 155.321C243.328 154.807 243.343 154.529 243.592 154.028C244.651 151.899 253.99 148.019 256.415 147.146C267.428 143.182 278.471 143.359 289.278 148.006C292.496 149.389 295.474 151.245 298.648 152.724C300.926 152.987 309.795 156.292 310.776 155.954C312.317 157.271 312.928 159.294 314.338 160.51C322.547 175.266 325.125 191 320.371 207.431C318.64 213.412 313.896 223.957 308.842 227.824C308.636 226.839 308.427 225.851 308.136 224.887C305.984 217.774 301.354 213.074 294.94 209.609C292.483 208.433 289.677 208.091 286.997 207.782C287.597 204.48 289.519 201.545 290.213 198.278C291.702 191.269 284.908 180.805 279.166 177.193C275.104 174.637 268.855 174.308 266.075 169.92C263.647 166.089 269.198 165.554 269.424 162.559C269.594 160.321 266.471 159.049 265.353 157.493C264.525 156.34 264.663 155.302 264.832 153.955C262.534 154.935 259.997 155.71 257.551 156.225C256.533 157.85 255.759 159.209 253.735 159.632C252.083 159.977 250.18 159.518 248.553 159.154ZM260.919 151.643C259.653 153.005 258.267 154.483 257.551 156.225C259.997 155.71 262.534 154.935 264.832 153.955C266.862 152.846 269.183 151.969 271.077 150.674C267.584 150.504 264.325 150.87 260.919 151.643Z"/>
	<path fill="#0FB981" transform="matrix(2.052 0 0 2.052 6.10352e-05 0)" d="M298.648 152.724C300.926 152.987 309.795 156.292 310.776 155.954C312.317 157.271 312.928 159.294 314.338 160.51C322.547 175.266 325.125 191 320.371 207.431C318.64 213.412 313.896 223.957 308.842 227.824C308.636 226.839 308.427 225.851 308.136 224.887C305.984 217.774 301.354 213.074 294.94 209.609C296.943 207.573 299.756 206.436 301.691 204.224C303.27 202.418 302.958 199.995 304.158 198.021C305.787 195.34 308.457 193.423 309.804 190.528C313.607 182.354 304.589 180.333 302.474 174.414C302.047 173.219 302.011 171.992 302.601 170.839C302.921 170.214 303.449 169.622 304.175 169.501C307.468 168.95 307.615 175.17 309.66 176.589C310.185 176.953 310.472 176.957 311.073 176.83C311.787 176.306 312.18 175.599 312.45 174.766C312.638 174.186 312.854 173.421 312.802 172.804C312.433 168.387 305.824 160.009 302.827 156.96C301.735 155.85 299.362 154.484 298.8 153.131C298.744 152.997 298.699 152.86 298.648 152.724Z"/>
	<path fill="#032C23" transform="matrix(2.052 0 0 2.052 6.10352e-05 0)" d="M311.843 199.795C312.672 199.725 313.621 199.63 314.423 199.896C315.488 200.25 316.295 201.077 316.754 202.086C317.532 203.798 317.394 206.066 316.748 207.795C316.463 208.558 316.141 209.162 315.37 209.502C314.364 209.141 313.607 207.599 313.026 206.694C312.228 207.358 311.416 208.097 310.534 208.646C309.682 209.176 308.849 209.352 307.865 209.1C306.3 207.492 308.63 203.924 308.338 201.317C308.326 201.204 308.311 201.091 308.297 200.978C309.475 200.467 310.604 200.113 311.843 199.795Z"/>
	<path fill="#0FB981" transform="matrix(2.052 0 0 2.052 6.10352e-05 0)" d="M257.551 156.225C259.997 155.71 262.534 154.935 264.832 153.955C264.663 155.302 264.525 156.34 265.353 157.493C266.471 159.049 269.594 160.321 269.424 162.559C269.198 165.554 263.647 166.089 266.075 169.92C268.855 174.308 275.104 174.637 279.166 177.193C284.908 180.805 291.702 191.269 290.213 198.278C289.519 201.545 287.597 204.48 286.997 207.782C280.091 207.628 273.693 208.818 268.528 213.751C265.593 216.555 263.08 220.195 261.677 224.012C260.943 226.592 260.71 228.903 260.648 231.576C260.704 235.316 261.295 238.321 262.502 241.851C260.82 241.159 258.422 240.976 256.598 240.622C250.408 238.981 245.218 237.002 239.796 233.547C237.642 231.683 235.266 230.133 233.279 228.073C231.373 225.598 228.849 223.641 227.512 220.739Q226.514 219.242 225.55 217.723Q224.568 215.8 223.429 213.966C223.239 212.522 222.285 210.699 221.778 209.301C220.876 206.815 220.056 204.321 219.51 201.73C219.38 199.876 218.898 197.909 218.623 196.06C218.344 192.661 218.466 189.182 218.593 185.778C218.627 185.673 218.652 185.566 218.696 185.465C219.367 183.929 223.48 182.466 224.935 181.808C226.77 180.58 229.006 179.678 230.981 178.673Q229.826 176.474 228.77 174.226C232.482 169.811 234.536 165.19 240.142 162.753C242.752 161.619 245.676 160.722 248.162 159.372C248.293 159.301 248.423 159.227 248.553 159.154C250.18 159.518 252.083 159.977 253.735 159.632C255.759 159.209 256.533 157.85 257.551 156.225ZM224.935 181.808C223.48 182.466 219.367 183.929 218.696 185.465C218.652 185.566 218.627 185.673 218.593 185.778C218.466 189.182 218.344 192.661 218.623 196.06C218.898 197.909 219.38 199.876 219.51 201.73C220.056 204.321 220.876 206.815 221.778 209.301C222.285 210.699 223.239 212.522 223.429 213.966Q224.568 215.8 225.55 217.723Q226.514 219.242 227.512 220.739C227.573 220.69 227.884 220.328 227.89 220.265C227.958 219.632 224.94 210.772 224.576 209.239C222.999 202.588 222.254 194.991 223.4 188.22C223.748 186.162 224.375 184.27 224.835 182.257L224.935 181.808Z"/>
	<path fill="#032C23" transform="matrix(2.052 0 0 2.052 6.10352e-05 0)" d="M226.844 191.181C229.359 189.969 232.942 188.481 235.779 189.008C239.389 189.679 240.517 193.684 242.275 196.374C244.446 199.698 247.197 201.509 249.363 205.523C251.779 210.002 253.548 217.432 256.167 221.024C257.733 223.173 259.187 223.634 261.677 224.012C260.943 226.592 260.71 228.903 260.648 231.576C260.636 232.323 260.582 233.01 260.453 233.746L260.191 233.888C258.571 233.55 257.054 232.741 255.545 232.081C248.454 228.979 241.143 225.167 235.96 219.276C228.982 211.344 226.234 201.574 226.844 191.181Z"/>
	<path fill="#032C23" transform="matrix(2.052 0 0 2.052 6.10352e-05 0)" d="M265.695 260.241C277.281 259.858 288.932 260.492 300.529 260.2C300.313 268.315 300.499 276.487 300.502 284.61L300.531 332.563L300.529 348.87C300.529 355.187 300.63 361.234 299.355 367.469Q299.131 368.582 298.836 369.679Q298.54 370.775 298.174 371.85Q297.809 372.925 297.374 373.975Q296.94 375.024 296.438 376.043Q295.937 377.062 295.371 378.046Q294.805 379.031 294.176 379.976Q293.547 380.922 292.859 381.825Q292.17 382.728 291.425 383.585C285.919 389.848 277.004 394.9 268.561 395.455C257.818 396.383 245.797 396.557 236.268 390.781C236.997 387.607 238.307 384.517 239.387 381.443Q242.016 373.779 244.821 366.177C247.731 368.008 251.267 369.017 254.702 369.073C257.645 369.121 260.429 368.458 262.551 366.286C264.398 364.396 264.961 362.369 265.312 359.831C265.894 355.618 265.693 351.168 265.699 346.918L265.713 327.378L265.695 260.241Z"/>
	<path fill="#032C23" transform="matrix(2.052 0 0 2.052 6.10352e-05 0)" d="M414.258 263.775C414.15 261.781 413.932 239.202 414.076 238.733C414.129 238.563 414.278 238.439 414.378 238.292L415.134 238.258C425.973 238.12 436.987 237.864 447.813 238.277C448.079 238.241 448.325 238.3 448.589 238.338C449.114 239.428 448.758 260.759 448.806 263.802Q460.16 263.723 471.515 263.764C471.336 272.422 471.447 281.131 471.51 289.791C463.982 289.408 456.266 289.575 448.727 289.72C449.019 297.801 448.772 306.015 448.75 314.11C448.741 317.281 448.474 320.6 448.812 323.746C448.985 325.37 449.385 326.971 450.117 328.437C451.282 330.772 453.189 332.528 455.709 333.281C460.39 334.679 465.616 332.884 469.752 330.733C472.82 338.719 475.509 346.882 478.415 354.932C470.904 359.812 461.498 360.619 452.774 360.55C442.191 360.465 431.043 357.959 423.427 350.112C412.921 339.288 414.138 324.431 414.159 310.544C414.17 303.612 414.011 296.671 414.129 289.74C411.318 289.808 408.477 289.699 405.662 289.693C405.548 291.262 406.863 293.83 407.251 295.462Q407.925 298.324 408.307 301.239C409.053 307.01 408.674 312.787 408.474 318.577C402.271 318.267 395.986 318.485 389.771 318.488L355.586 318.497C349.701 318.495 342.047 318.976 336.369 318.318C337.215 320.322 338.046 322.283 339.236 324.109C342.592 329.259 347.527 332.252 353.499 333.481C360.179 334.855 369.103 334.285 375.253 331.156C378.17 329.671 380.796 327.591 383.515 325.777C385.725 327.431 387.604 329.7 389.504 331.701C393.58 335.997 397.491 340.445 401.796 344.516C400.235 346.344 398.362 348.015 396.494 349.519C383.913 359.643 365.998 361.951 350.346 360.136C335.7 358.438 321.401 352.267 312.105 340.47C303.625 329.707 300.396 316.056 302.093 302.537Q302.233 301.338 302.433 300.148Q302.633 298.957 302.892 297.778Q303.151 296.599 303.469 295.434Q303.786 294.27 304.162 293.123Q304.538 291.975 304.97 290.848Q305.403 289.721 305.891 288.617Q306.379 287.513 306.922 286.435Q307.465 285.357 308.061 284.307Q308.657 283.258 309.305 282.239Q309.953 281.221 310.651 280.236Q311.349 279.251 312.096 278.302Q312.842 277.353 313.635 276.443Q314.428 275.533 315.265 274.664Q316.103 273.794 316.983 272.968Q317.863 272.141 318.783 271.36Q319.703 270.578 320.661 269.844C332.847 260.444 349.319 257.074 364.427 259.084C378.984 261.02 391.059 267.684 399.973 279.382C399.41 274.296 399.586 268.971 399.577 263.852C404.407 263.55 409.416 263.727 414.258 263.775ZM353.897 283.355C348.788 283.684 344.319 285.805 340.916 289.654C338.149 292.784 337.019 296.274 335.993 300.253C338.915 299.896 342.048 300.129 344.994 300.143L360.062 300.157C365.52 300.143 371.055 300.304 376.502 300.029C374.43 293.626 371.98 288.425 365.678 285.237C361.941 283.347 358.025 282.991 353.897 283.355Z"/>
	<path fill="#032C23" transform="matrix(2.052 0 0 2.052 6.10352e-05 0)" d="M130.598 186.131C131.386 183.33 132.603 180.59 133.974 178.029C140.253 166.293 151.941 158.033 164.549 154.282C179.463 149.844 198.005 150.371 211.836 157.791L213.626 154.772C214.059 155.688 213.864 156.583 213.95 157.549L213.596 158.406C214.502 160.018 220.859 163.466 222.906 166.317L225.459 162.255C225.68 162.483 225.994 162.65 225.968 162.996C225.867 164.35 224.521 164.864 224.658 166.549C224.479 166.907 224.238 167.115 224.385 167.518C225.271 169.952 227.892 171.716 228.77 174.226Q229.826 176.474 230.981 178.673C229.006 179.678 226.77 180.58 224.935 181.808C223.48 182.466 219.367 183.929 218.696 185.465C218.652 185.566 218.627 185.673 218.593 185.778C218.466 189.182 218.344 192.661 218.623 196.06C218.898 197.909 219.38 199.876 219.51 201.73C220.056 204.321 220.876 206.815 221.778 209.301C222.285 210.699 223.239 212.522 223.429 213.966Q224.568 215.8 225.55 217.723Q226.514 219.242 227.512 220.739C228.849 223.641 231.373 225.598 233.279 228.073C233.016 228.402 232.725 228.724 232.508 229.085C231.752 229.004 231.327 228.712 230.714 228.305L230.644 228.061L230.257 228.088C228.748 230.951 227.397 233.815 225.364 236.357C217.374 246.351 204.92 251.951 192.376 253.303C175.963 255.072 158.474 251.381 145.499 240.801C137.009 233.879 129.836 222.488 128.675 211.428C123.696 211.596 118.672 211.465 113.689 211.468L85.8834 211.479L69.707 211.498C66.6406 211.503 63.4617 211.7 60.4206 211.335C60.9442 212.634 61.4663 213.96 62.1103 215.204C64.8089 220.42 69.2438 224.096 74.8541 225.811C82.2228 228.064 92.7165 227.632 99.5914 223.957C102.339 222.488 104.617 220.275 107.349 218.859C107.42 218.822 107.493 218.787 107.566 218.751C109.891 220.439 111.949 223.049 113.936 225.133L125.79 237.516C123.296 240.662 119.684 243.413 116.301 245.544C104.314 253.096 84.4134 255.635 70.4643 252.52L70.4768 252.66C70.8367 256.375 70.6767 260.181 70.5857 263.911C74.1838 263.649 89.9009 263.31 92.7853 264.057L92.7126 264.539L92.94 264.391C93.5343 267.506 93.2569 271.006 93.2562 274.174L93.2364 289.858C85.7407 289.439 78.0583 289.661 70.5451 289.776C70.8856 292.585 70.7009 295.58 70.7034 298.408L70.676 314.943C70.6596 319.072 70.0903 324.065 71.6702 327.945C72.582 330.184 74.203 332.228 76.5038 333.128C81.2868 334.999 87.2418 332.794 91.6211 330.85C94.1521 337.389 96.014 344.21 98.7008 350.684C97.9495 340.283 98.4381 329.556 98.4352 319.123L98.513 260.157C103.819 260.456 109.239 260.222 114.563 260.222C120.266 260.223 126.048 260.447 131.736 260.112Q131.754 265.874 131.691 271.635C141.491 261.539 150.893 258.837 164.757 258.478Q164.77 263.706 164.726 268.933C175.712 262.546 188.47 259.477 201.081 258.646C215.835 257.674 233.303 259.977 244.684 270.124C249.989 274.854 253.433 281.195 255.259 288.022C257.581 296.702 257.273 306.112 257.298 315.029L257.337 343.396C257.341 348.594 257.132 353.878 257.451 359.065C246.741 358.581 235.823 358.957 225.094 358.972C224.88 354.652 225.006 350.279 225.044 345.954C223.905 348.277 222.473 350.353 220.638 352.185C214.158 358.657 205.275 360.584 196.413 360.624C185.709 360.671 174.833 358.278 167.03 350.457C161.52 344.934 159.21 338.419 159.194 330.715C159.178 323.004 160.701 316.824 166.338 311.227C179.355 298.303 205.638 300.557 222.661 300.533C222.186 297.837 221.739 295.203 220.305 292.822C218.002 288.998 214.041 286.877 209.803 285.885C201.05 283.835 190.419 285.617 182.303 289.237C179.693 290.402 177.273 291.922 174.85 293.428C173.398 291.123 172.247 288.518 171.025 286.078C168.904 281.843 166.742 277.595 164.853 273.251C164.514 278.685 164.716 284.237 164.706 289.685C161.768 289.364 158.712 289.377 155.756 289.419C149.703 289.507 143.463 291.137 139.174 295.656C136.293 298.692 134.725 302.774 133.976 306.838C132.843 312.987 133.461 322.921 133.465 329.584C133.471 339.369 133.193 349.224 133.483 358.998C129.837 358.913 100.691 359.355 99.1739 358.884C98.9981 358.829 98.8708 358.675 98.7193 358.57C98.3489 357.641 98.5791 356.683 98.696 355.716C91.1944 359.818 82.793 360.677 74.3937 360.576C63.7523 360.447 52.681 357.858 45.0494 349.964C34.7373 339.298 35.7439 324.317 35.7488 310.629Q35.6769 300.181 35.758 289.732C31.0136 289.936 26.1609 289.705 21.4018 289.758C21.0771 281.094 21.4266 272.425 21.2671 263.761L35.9434 263.754C35.5614 260.603 35.7317 257.323 35.7279 254.147Q35.6864 246.15 35.8 238.155C37.2602 238.016 38.7631 238.069 40.2309 238.058Q39.2041 237.055 38.2382 235.994Q37.2724 234.933 36.371 233.816Q35.4695 232.699 34.6356 231.531Q33.8017 230.364 33.0382 229.148Q32.2747 227.933 31.5844 226.675Q30.894 225.417 30.2792 224.12Q29.6644 222.824 29.1272 221.493Q28.59 220.162 28.1324 218.802C23.9271 206.035 24.8495 191.015 31.0124 179.03C37.1914 167.013 48.4388 158.3 61.2236 154.288C76.1124 149.615 93.7541 150.76 107.614 158.09C118.947 164.085 126.813 173.951 130.598 186.131ZM204.928 212.616C204.553 210.89 204.054 209.049 203.986 207.278C203.009 203.055 203.137 198.314 203.09 193.986C202.976 189.989 201.379 187.425 198.539 184.712C194.367 180.726 189.163 179.103 183.481 179.246C177.891 179.387 172.651 181.494 168.78 185.596C164.418 190.221 162.801 196.992 163.008 203.214C163.228 209.864 165.112 216.044 170.068 220.694C174.08 224.459 179.47 226.175 184.92 225.979C190.423 225.78 195.241 224.001 199.029 219.931C201.055 217.754 202.516 214.26 204.928 212.616ZM79.289 176.353C73.7985 176.61 68.9385 178.288 65.1505 182.427C62.3911 185.442 60.8772 189.269 59.9884 193.213C62.8611 192.951 65.822 193.125 68.707 193.154Q74.8222 193.208 80.9375 193.175C87.4083 193.185 93.9561 193.392 100.411 192.97C98.6607 187.022 96.2052 181.85 90.5192 178.735C86.8952 176.75 83.3537 176.341 79.289 176.353ZM205.901 318.843C201.758 319.201 197.311 319.635 194.45 323.09C192.916 324.942 192.322 327.394 192.613 329.762C192.934 332.369 194.329 334.615 196.42 336.182C199.89 338.783 204.695 339.008 208.838 338.408C208.93 338.394 209.022 338.376 209.114 338.36C213.851 337.195 218.048 335.374 220.69 331.044C222.983 327.285 222.534 322.946 222.512 318.73C217.066 318.682 211.311 318.288 205.901 318.843ZM217.099 185.949C215.553 186.36 205.758 191.144 204.905 192.345C204.72 192.605 204.713 192.924 204.699 193.228C204.668 197.615 205.243 201.791 205.528 206.142C206.015 208.79 206.36 211.57 207.182 214.137C213.74 218.36 221.339 221.132 228.073 225.141C226.808 223.195 225.547 221.255 224.381 219.246C224.721 218.541 224.941 218.215 225.55 217.723Q224.568 215.8 223.429 213.966C223.239 212.522 222.285 210.699 221.778 209.301C220.876 206.815 220.056 204.321 219.51 201.73C219.38 199.876 218.898 197.909 218.623 196.06C218.344 192.661 218.466 189.182 218.593 185.778C217.964 185.685 217.708 185.791 217.099 185.949Z"/>
	<path fill="#123C34" transform="matrix(2.052 0 0 2.052 6.10352e-05 0)" d="M223.429 213.966Q224.568 215.8 225.55 217.723C224.941 218.215 224.721 218.541 224.381 219.246C223.581 218.009 222.959 216.756 222.342 215.421C222.888 215.529 223.252 215.792 223.801 215.852C223.556 215.332 223.324 214.934 223.382 214.345C223.394 214.218 223.413 214.092 223.429 213.966Z"/>
	<path fill="#0E312F" transform="matrix(2.052 0 0 2.052 6.10352e-05 0)" d="M218.623 196.06C218.898 197.909 219.38 199.876 219.51 201.73C219.11 202.335 218.841 202.875 218.57 203.547C218.428 203.898 218.492 203.757 218.259 204.126C217.599 201.719 217.403 199.163 217.131 196.688C217.551 196.792 217.852 196.816 218.283 196.779L218.623 196.06Z"/>
	<path fill="#123C34" transform="matrix(2.052 0 0 2.052 6.10352e-05 0)" d="M217.099 185.949C217.708 185.791 217.964 185.685 218.593 185.778C218.466 189.182 218.344 192.661 218.623 196.06L218.283 196.779C217.852 196.816 217.551 196.792 217.131 196.688C216.661 193.205 216.577 189.423 217.099 185.949Z"/>
	<path fill="#032C23" transform="matrix(2.052 0 0 2.052 6.10352e-05 0)" d="M219.51 201.73C220.056 204.321 220.876 206.815 221.778 209.301C222.285 210.699 223.239 212.522 223.429 213.966C223.413 214.092 223.394 214.218 223.382 214.345C223.324 214.934 223.556 215.332 223.801 215.852C223.252 215.792 222.888 215.529 222.342 215.421C220.548 212.915 218.76 207.158 218.259 204.126C218.492 203.757 218.428 203.898 218.57 203.547C218.841 202.875 219.11 202.335 219.51 201.73Z"/>
</svg>
