<?xml version="1.0" encoding="UTF-8"?>
<!DOCTYPE svg PUBLIC "-//W3C//DTD SVG 1.1//EN" "http://www.w3.org/Graphics/SVG/1.1/DTD/svg11.dtd">
<svg xmlns="http://www.w3.org/2000/svg" version="1.1" width="500px" height="500px" style="shape-rendering:geometricPrecision; text-rendering:geometricPrecision; image-rendering:optimizeQuality; fill-rule:evenodd; clip-rule:evenodd" xmlns:xlink="http://www.w3.org/1999/xlink">
<g><path style="opacity:1" fill="#01281e" d="M -0.5,-0.5 C 166.167,-0.5 332.833,-0.5 499.5,-0.5C 499.5,166.167 499.5,332.833 499.5,499.5C 332.833,499.5 166.167,499.5 -0.5,499.5C -0.5,332.833 -0.5,166.167 -0.5,-0.5 Z"/></g>
<g><path style="opacity:1" fill="#CCFCE3" d="M 312.5,155.5 C 311.833,155.5 311.5,155.833 311.5,156.5C 310.29,156.068 309.29,155.401 308.5,154.5C 291.977,137.797 272.644,133.631 250.5,142C 238.185,147.479 229.518,156.313 224.5,168.5C 223.659,167.074 222.659,165.74 221.5,164.5C 222.496,164.586 223.329,164.252 224,163.5C 240.317,138.392 262.817,130.559 291.5,140C 299.809,143.487 306.809,148.654 312.5,155.5 Z"/></g>
<g><path style="opacity:1" fill="#082f24" d="M 308.5,154.5 C 305.123,154.041 301.789,153.374 298.5,152.5C 279.479,140.093 260.813,140.593 242.5,154C 243.78,155.966 245.447,157.466 247.5,158.5C 239.917,160.801 233.917,165.301 229.5,172C 228.906,172.464 228.239,172.631 227.5,172.5C 226.974,170.77 225.974,169.436 224.5,168.5C 229.518,156.313 238.185,147.479 250.5,142C 272.644,133.631 291.977,137.797 308.5,154.5 Z"/></g>
<g><path style="opacity:1" fill="#CCFCE3" d="M 308.5,125.5 C 309.978,125.238 311.311,125.571 312.5,126.5C 313.192,129.123 314.692,131.123 317,132.5C 317.45,129.894 318.95,128.561 321.5,128.5C 320.171,134.067 322.004,138.067 327,140.5C 327.611,144.088 326.111,145.254 322.5,144C 320.668,143.252 319.001,142.252 317.5,141C 312.437,140.752 307.437,140.085 302.5,139C 301.663,137.989 301.33,136.822 301.5,135.5C 304.166,135.067 306.832,134.567 309.5,134C 307.301,131.376 306.968,128.542 308.5,125.5 Z"/></g>
<g><path style="opacity:1" fill="#16392f" d="M 309.5,127.5 C 314.56,132.381 319.893,137.215 325.5,142C 322.298,141.914 319.298,140.914 316.5,139C 312.833,138.667 309.167,138.333 305.5,138C 305.167,137.667 304.833,137.333 304.5,137C 307.451,136.904 310.118,136.071 312.5,134.5C 310.146,132.754 309.146,130.421 309.5,127.5 Z"/></g>
<g><path style="opacity:1" fill="#CCFCE3" d="M 298.5,152.5 C 304.648,158.128 309.314,164.795 312.5,172.5C 312.297,174.208 311.464,175.541 310,176.5C 308.319,174.452 306.819,172.285 305.5,170C 304.216,169.316 303.049,169.483 302,170.5C 301.365,172.635 301.699,174.635 303,176.5C 311.284,182.773 311.618,189.439 304,196.5C 302.757,202.083 299.59,206.249 294.5,209C 297.282,211.417 300.282,212.584 303.5,212.5C 302.572,213.768 302.405,215.101 303,216.5C 305.516,219.534 307.516,222.868 309,226.5C 325.928,203.772 326.762,180.439 311.5,156.5C 311.5,155.833 311.833,155.5 312.5,155.5C 313.167,156.833 314.167,157.833 315.5,158.5C 326.329,179.583 326.162,200.583 315,221.5C 313.374,224.128 311.374,226.461 309,228.5C 308.769,236.362 306.269,243.362 301.5,249.5C 292.885,255.753 283.552,257.087 273.5,253.5C 269.071,250.907 265.404,247.407 262.5,243C 250.083,241.291 239.417,236.124 230.5,227.5C 222.203,242.173 209.536,250.673 192.5,253C 168.81,255.889 149.644,248.056 135,229.5C 131.329,223.654 129.163,217.32 128.5,210.5C 105.833,210.5 83.1667,210.5 60.5,210.5C 62.7668,219.262 68.4335,224.429 77.5,226C 88.3339,227.887 98.0005,225.387 106.5,218.5C 112.986,224.485 119.319,230.652 125.5,237C 113.338,248.391 98.838,253.891 82,253.5C 78.132,253.381 74.2987,253.047 70.5,252.5C 70.5,256.167 70.5,259.833 70.5,263.5C 77.8333,263.5 85.1667,263.5 92.5,263.5C 92.5,272.167 92.5,280.833 92.5,289.5C 85.1667,289.5 77.8333,289.5 70.5,289.5C 70.0556,302.907 70.5556,316.24 72,329.5C 77.7434,334.351 83.9101,334.684 90.5,330.5C 93.0901,335.603 95.0901,340.936 96.5,346.5C 96.9867,347.473 97.4867,348.473 98,349.5C 98.5,319.835 98.6666,290.169 98.5,260.5C 109.167,260.5 119.833,260.5 130.5,260.5C 130.163,264.621 130.496,267.955 131.5,270.5C 140.551,261.37 151.551,257.37 164.5,258.5C 164.183,261.572 164.516,264.572 165.5,267.5C 184.625,258.541 204.625,256.041 225.5,260C 242.139,264.305 252.306,274.805 256,291.5C 256.5,313.831 256.667,336.164 256.5,358.5C 245.833,358.5 235.167,358.5 224.5,358.5C 224.666,354.486 224.499,350.486 224,346.5C 221.117,351.05 217.284,354.55 212.5,357C 197.468,362.618 183.135,361.284 169.5,353C 160.258,344.889 156.758,334.723 159,322.5C 162.141,312.693 168.641,306.193 178.5,303C 183.689,301.202 189.022,300.369 194.5,300.5C 203.833,300.5 213.167,300.5 222.5,300.5C 222.737,299.209 222.404,298.209 221.5,297.5C 219.201,289.064 213.534,284.897 204.5,285C 193.846,284.198 184.012,286.698 175,292.5C 171.172,286.851 167.839,280.851 165,274.5C 164.501,279.489 164.334,284.489 164.5,289.5C 155.441,287.203 147.108,288.703 139.5,294C 136.15,297.532 133.984,301.699 133,306.5C 132.5,323.83 132.333,341.163 132.5,358.5C 121.167,358.5 109.833,358.5 98.5,358.5C 98.719,357.325 98.3857,356.325 97.5,355.5C 82.093,362.329 66.7597,362.162 51.5,355C 42.7972,349.959 37.6306,342.459 36,332.5C 35.5001,318.171 35.3334,303.837 35.5,289.5C 31.03,288.514 26.3633,288.181 21.5,288.5C 21.5,280.167 21.5,271.833 21.5,263.5C 26.1667,263.5 30.8333,263.5 35.5,263.5C 35.5,254.833 35.5,246.167 35.5,237.5C 36.8734,237.657 38.2068,237.49 39.5,237C 26.1506,222.588 21.9839,205.754 27,186.5C 36.226,163.294 53.3927,151.627 78.5,151.5C 103.3,150.805 120.467,161.805 130,184.5C 137.658,166.417 151.158,155.584 170.5,152C 179.167,151.333 187.833,151.333 196.5,152C 201.786,153.15 206.786,154.983 211.5,157.5C 212.167,157.833 212.833,158.167 213.5,158.5C 216.45,160.115 219.116,162.115 221.5,164.5C 222.659,165.74 223.659,167.074 224.5,168.5C 225.974,169.436 226.974,170.77 227.5,172.5C 228.361,174.386 229.361,176.22 230.5,178C 228.273,178.941 226.273,180.108 224.5,181.5C 222.118,182.351 220.118,183.684 218.5,185.5C 217.833,185.5 217.167,185.5 216.5,185.5C 212.615,187.36 208.781,189.36 205,191.5C 204.226,198.224 204.559,204.89 206,211.5C 206.93,213.552 208.43,215.052 210.5,216C 215.735,218.785 221.068,221.285 226.5,223.5C 226.435,223.938 226.601,224.272 227,224.5C 227.278,223.584 227.778,222.918 228.5,222.5C 236.728,233.78 247.728,239.446 261.5,239.5C 260.959,237.465 260.292,235.465 259.5,233.5C 247.479,229.757 237.979,222.757 231,212.5C 226.93,205.669 225.597,198.335 227,190.5C 233.754,186.859 238.421,188.526 241,195.5C 243.706,197.871 246.039,200.537 248,203.5C 250.782,210.23 253.949,216.73 257.5,223C 258.944,223.781 260.277,223.614 261.5,222.5C 266.39,211.883 274.723,206.55 286.5,206.5C 292.108,194.855 289.775,185.022 279.5,177C 274.468,175.402 269.968,172.902 266,169.5C 265.333,168.167 265.333,166.833 266,165.5C 269.536,162.317 269.202,159.651 265,157.5C 264.51,156.207 264.343,154.873 264.5,153.5C 265.882,152.199 267.548,151.366 269.5,151C 266.5,150.333 263.5,150.333 260.5,151C 259.117,152.271 258.117,153.771 257.5,155.5C 255.162,159.455 251.829,160.455 247.5,158.5C 245.447,157.466 243.78,155.966 242.5,154C 260.813,140.593 279.479,140.093 298.5,152.5 Z"/></g>
<g><path style="opacity:1" fill="#10352a" d="M 264.5,153.5 C 262.167,154.167 259.833,154.833 257.5,155.5C 258.117,153.771 259.117,152.271 260.5,151C 263.5,150.333 266.5,150.333 269.5,151C 267.548,151.366 265.882,152.199 264.5,153.5 Z"/></g>
<g><path style="opacity:1" fill="#CCFCE3" d="M 213.5,158.5 C 212.833,158.167 212.167,157.833 211.5,157.5C 226.922,129.457 250.589,117.957 282.5,123C 288.827,123.944 294.827,125.777 300.5,128.5C 300.167,128.833 299.833,129.167 299.5,129.5C 278.06,120.697 257.06,121.531 236.5,132C 226.141,138.586 218.475,147.42 213.5,158.5 Z"/></g>
<g><path style="opacity:1" fill="#23bb86" d="M 298.5,152.5 C 301.789,153.374 305.123,154.041 308.5,154.5C 309.29,155.401 310.29,156.068 311.5,156.5C 326.762,180.439 325.928,203.772 309,226.5C 307.516,222.868 305.516,219.534 303,216.5C 302.405,215.101 302.572,213.768 303.5,212.5C 300.282,212.584 297.282,211.417 294.5,209C 299.59,206.249 302.757,202.083 304,196.5C 311.618,189.439 311.284,182.773 303,176.5C 301.699,174.635 301.365,172.635 302,170.5C 303.049,169.483 304.216,169.316 305.5,170C 306.819,172.285 308.319,174.452 310,176.5C 311.464,175.541 312.297,174.208 312.5,172.5C 309.314,164.795 304.648,158.128 298.5,152.5 Z"/></g>
<g><path style="opacity:1" fill="#17b982" d="M 264.5,153.5 C 264.343,154.873 264.51,156.207 265,157.5C 269.202,159.651 269.536,162.317 266,165.5C 265.333,166.833 265.333,168.167 266,169.5C 269.968,172.902 274.468,175.402 279.5,177C 289.775,185.022 292.108,194.855 286.5,206.5C 274.723,206.55 266.39,211.883 261.5,222.5C 260.277,223.614 258.944,223.781 257.5,223C 253.949,216.73 250.782,210.23 248,203.5C 246.039,200.537 243.706,197.871 241,195.5C 238.421,188.526 233.754,186.859 227,190.5C 225.597,198.335 226.93,205.669 231,212.5C 237.979,222.757 247.479,229.757 259.5,233.5C 260.292,235.465 260.959,237.465 261.5,239.5C 247.728,239.446 236.728,233.78 228.5,222.5C 227.4,221.395 226.733,220.062 226.5,218.5C 224.195,210.334 222.861,202 222.5,193.5C 222.34,189.315 223.007,185.315 224.5,181.5C 226.273,180.108 228.273,178.941 230.5,178C 229.361,176.22 228.361,174.386 227.5,172.5C 228.239,172.631 228.906,172.464 229.5,172C 233.917,165.301 239.917,160.801 247.5,158.5C 251.829,160.455 255.162,159.455 257.5,155.5C 259.833,154.833 262.167,154.167 264.5,153.5 Z"/></g>
<g><path style="opacity:1" fill="#16b780" d="M 315.5,158.5 C 328.927,165.19 335.594,176.023 335.5,191C 337.084,218.368 325.751,237.868 301.5,249.5C 306.269,243.362 308.769,236.362 309,228.5C 311.374,226.461 313.374,224.128 315,221.5C 326.162,200.583 326.329,179.583 315.5,158.5 Z"/></g>
<g><path style="opacity:1" fill="#042b21" d="M 74.5,175.5 C 87.918,174.022 96.2513,179.688 99.5,192.5C 86.1625,192.667 72.8292,192.5 59.5,192C 61.5787,183.758 66.5787,178.258 74.5,175.5 Z"/></g>
<g><path style="opacity:1" fill="#03291f" d="M 178.5,178.5 C 188.632,177.479 196.466,181.145 202,189.5C 202.615,197.221 203.282,204.888 204,212.5C 195.901,225.231 185.068,228.398 171.5,222C 162.261,212.672 160.094,201.839 165,189.5C 168.336,184.269 172.836,180.602 178.5,178.5 Z"/></g>
<g><path style="opacity:1" fill="#043024" d="M 224.5,181.5 C 223.007,185.315 222.34,189.315 222.5,193.5C 222.861,202 224.195,210.334 226.5,218.5C 223.3,214.439 221.133,209.772 220,204.5C 218.743,198.231 218.243,191.898 218.5,185.5C 220.118,183.684 222.118,182.351 224.5,181.5 Z"/></g>
<g><path style="opacity:1" fill="#072d23" d="M 216.5,185.5 C 215.562,199.344 218.896,212.01 226.5,223.5C 221.068,221.285 215.735,218.785 210.5,216C 208.43,215.052 206.93,213.552 206,211.5C 204.559,204.89 204.226,198.224 205,191.5C 208.781,189.36 212.615,187.36 216.5,185.5 Z"/></g>
<g><path style="opacity:1" fill="#CCFCE3" d="M 308.5,199.5 C 315.334,198.184 317.834,200.851 316,207.5C 314.594,208.668 313.428,208.335 312.5,206.5C 310.827,208.086 308.827,208.753 306.5,208.5C 306.916,205.417 307.583,202.417 308.5,199.5 Z"/></g>
<g><path style="opacity:1" fill="#CCFCE3" d="M 216.5,185.5 C 217.167,185.5 217.833,185.5 218.5,185.5C 218.243,191.898 218.743,198.231 220,204.5C 221.133,209.772 223.3,214.439 226.5,218.5C 226.733,220.062 227.4,221.395 228.5,222.5C 227.778,222.918 227.278,223.584 227,224.5C 226.601,224.272 226.435,223.938 226.5,223.5C 218.896,212.01 215.562,199.344 216.5,185.5 Z"/></g>
<g><path style="opacity:1" fill="#1ab680" d="M 230.5,227.5 C 239.417,236.124 250.083,241.291 262.5,243C 265.404,247.407 269.071,250.907 273.5,253.5C 258.727,254.078 246.227,249.078 236,238.5C 233.628,235.09 231.795,231.423 230.5,227.5 Z"/></g>
<g><path style="opacity:1" fill="#CCFCE3" d="M 448.5,263.5 C 447.507,255.35 447.174,247.017 447.5,238.5C 436.5,238.5 425.5,238.5 414.5,238.5C 414.826,247.017 414.493,255.35 413.5,263.5C 413.5,254.833 413.5,246.167 413.5,237.5C 425.167,237.5 436.833,237.5 448.5,237.5C 448.5,246.167 448.5,254.833 448.5,263.5 Z"/></g>
<g><path style="opacity:1" fill="#CCFCE3" d="M 448.5,263.5 C 455.833,263.5 463.167,263.5 470.5,263.5C 470.5,272.167 470.5,280.833 470.5,289.5C 463.167,289.5 455.833,289.5 448.5,289.5C 448.057,302.574 448.557,315.574 450,328.5C 453.35,333.083 457.85,334.583 463.5,333C 465.402,331.699 467.402,331.032 469.5,331C 472.162,338.317 474.828,345.65 477.5,353C 476.033,355.735 473.7,357.402 470.5,358C 455.038,362.604 440.371,360.938 426.5,353C 419.311,346.79 415.145,338.957 414,329.5C 413.5,316.171 413.333,302.837 413.5,289.5C 410.753,289.187 408.086,289.52 405.5,290.5C 408.156,299.281 409.156,308.281 408.5,317.5C 384.5,317.5 360.5,317.5 336.5,317.5C 338.767,326.262 344.433,331.429 353.5,333C 364.334,334.887 374.001,332.387 382.5,325.5C 388.986,331.485 395.319,337.652 401.5,344C 386.867,357.607 369.533,362.94 349.5,360C 322.06,356.057 306.06,340.557 301.5,313.5C 301.5,310.167 301.5,306.833 301.5,303.5C 304.819,281.378 317.152,266.878 338.5,260C 357.213,255.601 374.546,258.601 390.5,269C 393.039,271.37 395.372,273.87 397.5,276.5C 397.783,277.289 398.283,277.956 399,278.5C 399.499,273.511 399.666,268.511 399.5,263.5C 404.167,263.5 408.833,263.5 413.5,263.5C 414.493,255.35 414.826,247.017 414.5,238.5C 425.5,238.5 436.5,238.5 447.5,238.5C 447.174,247.017 447.507,255.35 448.5,263.5 Z"/></g>
<g><path style="opacity:1" fill="#c7cfce" d="M 98.5,260.5 C 98.5,260.167 98.5,259.833 98.5,259.5C 109.5,259.5 120.5,259.5 131.5,259.5C 131.5,263.167 131.5,266.833 131.5,270.5C 130.496,267.955 130.163,264.621 130.5,260.5C 119.833,260.5 109.167,260.5 98.5,260.5 Z"/></g>
<g><path style="opacity:1" fill="#718681" d="M 98.5,259.5 C 98.5,259.833 98.5,260.167 98.5,260.5C 98.6666,290.169 98.5,319.835 98,349.5C 97.4867,348.473 96.9867,347.473 96.5,346.5C 97.1667,317.5 97.8333,288.5 98.5,259.5 Z"/></g>
<g><path style="opacity:1" fill="#CCFCE3" d="M 299.5,259.5 C 299.5,293.5 299.5,327.5 299.5,361.5C 297.679,380.49 287.345,391.656 268.5,395C 259.021,396.06 249.688,395.393 240.5,393C 238.445,392.313 236.779,391.146 235.5,389.5C 238.296,382.614 240.796,375.614 243,368.5C 243.689,367.643 244.522,366.977 245.5,366.5C 251.915,369.802 257.748,369.135 263,364.5C 263.862,362.913 264.529,361.246 265,359.5C 265.5,326.168 265.667,292.835 265.5,259.5C 276.833,259.5 288.167,259.5 299.5,259.5 Z"/></g>
<g><path style="opacity:1" fill="#7d918c" d="M 299.5,259.5 C 300.167,274.167 300.833,288.833 301.5,303.5C 301.5,306.833 301.5,310.167 301.5,313.5C 300.833,329.5 300.167,345.5 299.5,361.5C 299.5,327.5 299.5,293.5 299.5,259.5 Z"/></g>
<g><path style="opacity:1" fill="#304f47" d="M 35.5,237.5 C 35.5,246.167 35.5,254.833 35.5,263.5C 30.8333,263.5 26.1667,263.5 21.5,263.5C 21.1667,263.5 20.8333,263.5 20.5,263.5C 24.97,262.514 29.6367,262.181 34.5,262.5C 34.1739,253.983 34.5073,245.65 35.5,237.5 Z"/></g>
<g><path style="opacity:1" fill="#9eada9" d="M 20.5,263.5 C 20.8333,263.5 21.1667,263.5 21.5,263.5C 21.5,271.833 21.5,280.167 21.5,288.5C 26.3633,288.181 31.03,288.514 35.5,289.5C 30.5,289.5 25.5,289.5 20.5,289.5C 20.5,280.833 20.5,272.167 20.5,263.5 Z"/></g>
<g><path style="opacity:1" fill="#5a736c" d="M 399.5,263.5 C 399.666,268.511 399.499,273.511 399,278.5C 398.283,277.956 397.783,277.289 397.5,276.5C 398.167,272.167 398.833,267.833 399.5,263.5 Z"/></g>
<g><path style="opacity:1" fill="#042b21" d="M 350.5,282.5 C 363.918,281.022 372.251,286.688 375.5,299.5C 362.163,299.667 348.829,299.5 335.5,299C 337.579,290.758 342.579,285.258 350.5,282.5 Z"/></g>
<g><path style="opacity:1" fill="#667d77" d="M 221.5,297.5 C 222.404,298.209 222.737,299.209 222.5,300.5C 213.167,300.5 203.833,300.5 194.5,300.5C 203.713,300.156 212.713,299.156 221.5,297.5 Z"/></g>
<g><path style="opacity:1" fill="#b4c0bd" d="M 203.5,318.5 C 209.645,317.51 215.978,317.177 222.5,317.5C 222.813,321.042 222.479,324.375 221.5,327.5C 221.5,324.5 221.5,321.5 221.5,318.5C 215.5,318.5 209.5,318.5 203.5,318.5 Z"/></g>
<g><path style="opacity:1" fill="#042a21" d="M 203.5,318.5 C 209.5,318.5 215.5,318.5 221.5,318.5C 221.5,321.5 221.5,324.5 221.5,327.5C 218.266,334.705 212.599,338.372 204.5,338.5C 195.113,337.625 191.28,332.625 193,323.5C 195.805,320.347 199.305,318.681 203.5,318.5 Z"/></g>
</svg>
