<svg xmlns="http://www.w3.org/2000/svg" xmlns:xlink="http://www.w3.org/1999/xlink" viewBox="0 0 500 500"><defs><clipPath id="freepik--clip-path--inject-3"><polygon points="318.17 137.95 314.78 137.81 312.52 140.77 315.39 146.63 318.17 146.02 318.17 137.95" style="fill:#8f8f8f;stroke:#263238;stroke-miterlimit:10;clip-path:url(#freepik--clip-path-7--inject-3)"></polygon></clipPath><clipPath id="freepik--clip-path-2--inject-3"><polygon points="338.94 137.6 330.82 135.37 328.76 133.13 327.19 134.15 329.63 138.09 332.15 143.36 335.64 143.93 336.09 142.94 333.45 140.16 339.48 141.06 338.94 137.6" style="fill:#8f8f8f;stroke:#263238;stroke-miterlimit:10;clip-path:url(#freepik--clip-path--inject-3)"></polygon></clipPath><clipPath id="freepik--clip-path-3--inject-3"><polygon points="278.02 150.9 287.42 152.85 290.62 156.17 294.79 156.81 296.12 160.78 295.15 163.46 292.3 164.76 285.32 163.62 285.13 162.77 288.43 160.47 286.16 156.26 279.92 155.41 276.59 152.56 278.02 150.9" style="fill:#8f8f8f;stroke:#263238;stroke-miterlimit:10"></polygon></clipPath><clipPath id="freepik--clip-path-4--inject-3"><path d="M353.75,237.62l-7.45-1.25-9-1.14-6.62,1.47-6.48.09-6.5,3-3.8,1.07-2.35.52L307.64,245l-3.89,2.66-6.57-2.35.17-6.31-4-.69-4.27,1L288,237.43l-.42-3.94-2-1.81-2.9,1.09-.38,2.33-3.58,1L274.73,233l-2.42-4.85,1.88-6.69,6.29-.95,2,1.12,2.56-.57,2.78-2.63,3,.23,5.32,5.77,1.45-.54-1.52-4.82-1.85-2.28-.48-4.15,7.15-5.18-.69-8.13,2.8-3.54,1.69-5.53,2-.9,4.2-4.3-.17-1.75-3.37,1-1-1.57-2.35.53-3.44,1.66,1.09-3.16,7-3.8,1.29-2.3,4,4,2.35,1.49,2.8-1.52-1.9-2.49L312,175l-6.4-4.63-6.15-2.45-5.31.29-3.14-2-3.6-.09-.24,1,.95,6.28,1.33,1.95-.41,7.26L284,180l0-3.13-5-1.14-2.45-1.92-.11-5.58,5.19-5.86-.71-5.22-2.3.74-1.92-1.59-1.35-3.07-1.55.12-.09,3.61-2.26.95-2.72-7.24-2-.69-3.27-.62-3,2.47L265.7,155l1.66,3.44-9-4.06-6.62-4.58-1.71-5.67-5.93-.48-3.65,3.73a33.93,33.93,0,0,1-2.83,2.42,36.92,36.92,0,0,1-4.94,2l0,3.82-4.87,1.31.95,2.25,8.19-.47,5.05,3.58,1.66,7.48-.88,7.14,2,7-3.66,11.8,2.18,15.87,3.91,8.55,4.3,6.22,3.3-.29L253,222.8l-2.28-2.18-2.11-4.46,1.83-.86,4.7,7,3.65,6.36,1.23,5.55,5.15,4,8.45,3.73,11.77.52,4.13,2.45,3.32,2.85,4.37,1.49,5,.24,4.65-1.26s.26,2.19.5,3.25-1.95,5.37-1.95,5.37l-1.4,4.79,2.76,4.32,5.12.88,8.14,5.36,3.27.62.72,3.2.7,1.41a91.78,91.78,0,0,0,40.11-31l-.23-1.58L368,233.12l-3.2-1.31Z" style="fill:#8f8f8f;stroke:#263238;stroke-miterlimit:10;clip-path:url(#freepik--clip-path-3--inject-3)"></path></clipPath><clipPath id="freepik--clip-path-5--inject-3"><path d="M357.23,148.33,354,144.79l-4-4-2.28-6.21,4-.22-.26-2.18-2.83.4,2.11-1.59,2.24-2.06-.48-2.14-3.32-2.84-1.57-4.48a92.25,92.25,0,0,0-111.3-2.14l5.7,2.4-2.14,4.51L236,126l.85,5.87-1.57,1-1.61,2.82,1.07,3.8,3.72-.38-.69,4,3.63-.81,4.44-9.27-.11-3.56,5.88-1.76.93-2.89,6.05-2-.17-3.77,4.44-1.21a23.13,23.13,0,0,1,3.47-2.57,26.71,26.71,0,0,1,3.86.27l3.78,1.85,4.48-1,3.32-3.2,5-.67a5.46,5.46,0,0,0,2.54.34c1.07-.24,3.94-2.45,3.94-2.45l7.05,2.47,3,1.36.71,3.2,3.3-.29.64-2.15,3.06.66.17,1.76-6,3.13,4.67,3.89,8.64,2.56,4.15,3.56,4.8-.61.59-2.37,1.61-.81-6.5-3-3.51.33,2.59-1.47-3.37-3.06,3.58-1,5.27,1.52,2.21,4.89,3,2.25,3.3,5.77,5.46,2.37,1.56,7.05,5.63,2.12.3,2.39,0,2.92,2.14,3.56.85,1.83,3.77-.17.91-4Z" style="fill:#8f8f8f;stroke:#263238;stroke-miterlimit:10;clip-path:url(#freepik--clip-path-4--inject-3)"></path></clipPath><clipPath id="freepik--clip-path-6--inject-3"><path d="M355.23,126.19l.27,1.23-.31,3.65,1.31,2.85,2.54.33.9,4.06-2.8-.5,1.92,11.68-1.52,5.27,3,5.6,3.34,1.94,2.56,11.54,4.77,8.35,4.51,6.17,5.2.19.76-4.65.57-.7a93.36,93.36,0,0,0-1.79-11.34A91.78,91.78,0,0,0,355.23,126.19Z" style="fill:#8f8f8f;stroke:#263238;stroke-miterlimit:10;clip-path:url(#freepik--clip-path-5--inject-3)"></path></clipPath><clipPath id="freepik--clip-path-7--inject-3"><polygon points="305.6 135.81 290.12 132.75 283.98 134.34 283.38 138.73 280.2 136.52 275.74 138.63 276.88 145.78 281.34 147.7 283.22 143.02 287.13 145.51 295.03 149.81 297.69 155.72 304.81 161.54 313.45 158.05 312.52 154.89 309.79 151.69 307.47 143.24 308.8 139.13 305.6 135.81" style="fill:#8f8f8f;stroke:#263238;stroke-miterlimit:10;clip-path:url(#freepik--clip-path-6--inject-3)"></polygon></clipPath><clipPath id="freepik--clip-path-8--inject-3"><path d="M199.35,390.8c-1.4-12-4.64-37.44-5.13-40.62a55.62,55.62,0,0,1-.19-9.6s11-18.64,12.86-33.53c.55-4.45,1.05-9.42,1.53-14.34-7.56-.31-23.18-2-37.78-10.22a25.7,25.7,0,0,0-2.45,4.89c-3.84,10.58-1.35,20.13,3.16,33.77s9.08,20.19,7.83,26.36-1.15,14.1,1,20.08c1.27,3.62,6.05,15.43,9.57,25A17.29,17.29,0,0,0,199.35,390.8Z" style="fill:#0FB680;stroke:#263238;stroke-miterlimit:10"></path></clipPath><clipPath id="freepik--clip-path-9--inject-3"><path d="M167.35,290.08c5,5.35,17.48,15.1,40.2,11.26,1.51-14,2.72-30.52,3.92-34.83,1.37-4.91,4.4-16,4.4-16a57.19,57.19,0,0,0,1-17.44c-1.11-8.41-13.5-10.07-17.49-9.71s-7.15,1-7.15,1-10.9-2.19-14,3.86,6.75,33.17,7.17,36.12-13.33,12.45-17.16,23C167.86,288.29,167.59,289.19,167.35,290.08Z" style="fill:gray;stroke:#263238;stroke-linecap:round;stroke-linejoin:round"></path></clipPath><clipPath id="freepik--clip-path-10--inject-3"><path d="M191.9,188.09s-7.19,11-14.72,14.44c0,0,1,12.36,5.37,16.4s11.45,3.27,15.63,0,2.37-23,2.37-23S194.1,192.61,191.9,188.09Z" style="fill:#fff5f2;stroke:#263238;stroke-linecap:round;stroke-linejoin:round"></path></clipPath><clipPath id="freepik--clip-path-11--inject-3"><circle cx="290.51" cy="191.84" r="92.19" transform="translate(-46.52 104.59) rotate(-18.93)" style="fill:#0FB680;stroke:#263238;stroke-miterlimit:10"></circle></clipPath><clipPath id="freepik--clip-path-12--inject-3"><path d="M198.55,220.54s-11.55-.21-17.87,4-4.94,7.48-3.11,10.91,6.85,4,15.74,1.83,19.94-8.05,26.87-12.36,29.21-28.64,29.21-28.64l5.69-3.18s6.49-1.44,8-2.21-.57-1.58-1.79-1.31-5.14.62-5.14.62,7.15-3.32,7.69-4.72.36-2.21-1.29-1-7.32,2.91-7.32,2.91,8.66-6.26,8.84-7.37-.41-1.83-1.65-.7-9.19,5.6-9.19,5.6l5.69-7.58s.18-2.27-2-.24a56.12,56.12,0,0,1-5.42,4.86,35.37,35.37,0,0,1-4.09,1.76,5.11,5.11,0,0,1,.54-3.32c.81-1.24,2.53-2,.93-4.46-.45-.7-1,.22-1.35,1.57s-4.13,5.4-4.15,6.25a60.78,60.78,0,0,0,1.64,6.45S231,203.54,224.17,209.31s-8.91,6.88-8.91,6.88Z" style="fill:#fff5f2;stroke:#263238;stroke-linecap:round;stroke-linejoin:round"></path></clipPath></defs><g id="freepik--background-simple--inject-3"><path d="M94.46,300.61s27.72,66,74.81,100.88,110.43,35.91,159.92-.33,48.15-111,81.93-171.58S443.26,99.91,382.17,66.87s-87.51,10-160.91,13.48S36.72,145.13,94.46,300.61Z" style="fill:#0FB680"></path><path d="M94.46,300.61s27.72,66,74.81,100.88,110.43,35.91,159.92-.33,48.15-111,81.93-171.58S443.26,99.91,382.17,66.87s-87.51,10-160.91,13.48S36.72,145.13,94.46,300.61Z" style="fill:#fff5f2;opacity:0.7000000000000001"></path></g><g id="freepik--Character--inject-3"><path d="M210,193.28s-4.36-11.2-14.93-16.34-37.49,9.78-39.95,16.09,6.83,4.89,4.48,9.51S126,215,121.92,225.26s5.16,14.67,3.47,19.67-12.9,14.49-7.84,25.4,27.69,4.23,34.63,2.31,3.2,3.28,5.66,7.19,20.33-.62,26.51-6.34,3.61,6.42,9.64,4.81c2.2-.58,7.36-11.59,12.34-30S214.7,209.63,210,193.28Z" style="fill:#052d21"></path><path d="M178.28,335.63s-5.07,4.19-11.63,10.93-16.35,29.76-18.72,33.33-7.45,8-7.45,8-9-.6-9.41,1.51-.67,6.07-1.87,8.12-3.51,4.82-2.42,8.35,2.46,7.08,4.38,6.14,2.54-2.22,4.18-6.9,15.08-14.69,19.78-21.29,22.35-24.05,24.64-26.55,6-1.73,7.47-12.27S183.29,332.24,178.28,335.63Z" style="fill:#fff5f2;stroke:none;stroke-linecap:round;stroke-linejoin:round"></path><path d="M179.76,357.28c2.3-2.51,6-1.73,7.47-12.27s-3.94-12.77-8.95-9.38c0,0-5.07,4.19-11.63,10.93-5.79,5.94-14.07,24.51-17.58,31.29a14.19,14.19,0,0,0,6.84,4.92C161.52,375.53,177.58,359.66,179.76,357.28Z" style="fill:#0FB680;stroke:none;stroke-miterlimit:10"></path><path d="M136.35,394l2.36-6.17c-2.64-.06-7.35.06-7.64,1.57-.4,2.1-.67,6.07-1.87,8.12s-3.51,4.82-2.42,8.35,2.46,7.07,4.38,6.14,2.54-2.22,4.18-6.9c.74-2.1,3.84-5.26,7.46-8.71C140.4,393.87,136.35,394,136.35,394Z" style="fill:#263238;stroke:none;stroke-linecap:round;stroke-linejoin:round"></path><path d="M192.19,224.37s-10.9-2.19-14,3.86,6.75,33.17,7.17,36.12-13.33,12.45-17.16,23-1.35,20.13,3.16,33.77,9.08,20.19,7.83,26.36-1.15,14.1,1,20.08,13.76,34.26,13.51,38-4.76,8.85-4.66,10.52,8.7,7.05,11.81,10.38,9.23,5.41,9.77,3.57-4.95-7-5.88-11.86-4.16-15.7-4.77-22.2-5.12-42-5.7-45.82a55.62,55.62,0,0,1-.19-9.6s11-18.64,12.86-33.53,3.21-35.63,4.58-40.54,4.4-16,4.4-16a57.19,57.19,0,0,0,1-17.44c-1.11-8.41-13.5-10.07-17.49-9.71S192.19,224.37,192.19,224.37Z" style="fill:#fff5f2;stroke:none;stroke-linecap:round;stroke-linejoin:round"></path><path d="M199.35,390.8c-1.4-12-4.64-37.44-5.13-40.62a55.62,55.62,0,0,1-.19-9.6s11-18.64,12.86-33.53c.55-4.45,1.05-9.42,1.53-14.34-7.56-.31-23.18-2-37.78-10.22a25.7,25.7,0,0,0-2.45,4.89c-3.84,10.58-1.35,20.13,3.16,33.77s9.08,20.19,7.83,26.36-1.15,14.1,1,20.08c1.27,3.62,6.05,15.43,9.57,25A17.29,17.29,0,0,0,199.35,390.8Z" style="fill:#0FB680"></path><g style="clip-path:url(#freepik--clip-path-8--inject-3)"><path d="M194.79,295.57c-1.2,8-3.61,3.61-4.42,2s-8.43-11.25-8-7.63,5.62,44.16,8,57c2.06,11,5.28,31.55,7.18,44.6.59-.22,1.18-.46,1.8-.76-1.4-12-4.64-37.44-5.13-40.62a55.62,55.62,0,0,1-.19-9.6s11-18.64,12.86-33.53c.55-4.45,1.05-9.42,1.53-14.34a94.74,94.74,0,0,1-13-1.48C195.21,292.76,195,294.22,194.79,295.57Z" style="fill:#263238;opacity:0.30000000000000004"></path><path d="M190.55,303.2s2.35,24.63,2.81,33.7" style="fill:none;stroke:#2638;stroke-linecap:round;stroke-linejoin:round"></path></g><path d="M199.35,390.8c-1.4-12-4.64-37.44-5.13-40.62a55.62,55.62,0,0,1-.19-9.6s11-18.64,12.86-33.53c.55-4.45,1.05-9.42,1.53-14.34-7.56-.31-23.18-2-37.78-10.22a25.7,25.7,0,0,0-2.45,4.89c-3.84,10.58-1.35,20.13,3.16,33.77s9.08,20.19,7.83,26.36-1.15,14.1,1,20.08c1.27,3.62,6.05,15.43,9.57,25A17.29,17.29,0,0,0,199.35,390.8Z" style="fill:none;stroke:none;stroke-miterlimit:10"></path><path d="M167.35,290.08c5,5.35,17.48,15.1,40.2,11.26,1.51-14,2.72-30.52,3.92-34.83,1.37-4.91,4.4-16,4.4-16a57.19,57.19,0,0,0,1-17.44c-1.11-8.41-13.5-10.07-17.49-9.71s-7.15,1-7.15,1-10.9-2.19-14,3.86,6.75,33.17,7.17,36.12-13.33,12.45-17.16,23C167.86,288.29,167.59,289.19,167.35,290.08Z" style="fill:#ffdf82"></path><g style="clip-path:url(#freepik--clip-path-9--inject-3)"><path d="M216.83,233.1c-1.11-8.41-13.5-10.07-17.49-9.71s-7.15,1-7.15,1-.5-.1-1.31-.2l1.1,5.55s12.45,12.05,12.85,18.87-4.82,12.45-6,19.68-2.81,19.27-4,27.3-3.61,3.61-4.42,2-8.43-11.25-8-7.63c.12,1,.6,4.88,1.3,10.21,6.21,2,14.11,2.84,23.91,1.18,1.51-14,2.72-30.52,3.92-34.83,1.37-4.91,4.4-16,4.4-16A57.19,57.19,0,0,0,216.83,233.1Z" style="fill:#263238;opacity:0.30000000000000004"></path></g><path d="M167.35,290.08c5,5.35,17.48,15.1,40.2,11.26,1.51-14,2.72-30.52,3.92-34.83,1.37-4.91,4.4-16,4.4-16a57.19,57.19,0,0,0,1-17.44c-1.11-8.41-13.5-10.07-17.49-9.71s-7.15,1-7.15,1-10.9-2.19-14,3.86,6.75,33.17,7.17,36.12-13.33,12.45-17.16,23C167.86,288.29,167.59,289.19,167.35,290.08Z" style="fill:none;stroke:none;stroke-linecap:round;stroke-linejoin:round"></path><path d="M186.46,219.61a25.25,25.25,0,0,1,1.93,5.55c.27,2.1,2.53,5.8,5.87,8.73s5.41.15,5.26-3.82-2.23-13.49-2.23-13.49S190.38,220.29,186.46,219.61Z" style="fill:#fff5f2;stroke:#263238;stroke-linecap:round;stroke-linejoin:round"></path><path d="M176.88,204a2.09,2.09,0,0,0-2.44,2.13c-.16,2.49,4.14,3.61,4.14,3.61Z" style="fill:#fff5f2;stroke:#263238;stroke-linecap:round;stroke-linejoin:round"></path><path d="M191.9,188.09s-7.19,11-14.72,14.44c0,0,1,12.36,5.37,16.4s11.45,3.27,15.63,0,2.37-23,2.37-23S194.1,192.61,191.9,188.09Z" style="fill:#fff5f2"></path><g style="clip-path:url(#freepik--clip-path-10--inject-3)"><path d="M191.9,188.09l-.2.29.09,1.42a51.53,51.53,0,0,1,4.38,19.9,16.21,16.21,0,0,1-4.62,11.88,13.44,13.44,0,0,0,6.63-2.65c4.18-3.26,2.37-23,2.37-23S194.1,192.61,191.9,188.09Z" style="fill:#263238;opacity:0.30000000000000004"></path></g><path d="M191.9,188.09s-7.19,11-14.72,14.44c0,0,1,12.36,5.37,16.4s11.45,3.27,15.63,0,2.37-23,2.37-23S194.1,192.61,191.9,188.09Z" style="fill:none;stroke:#263238;stroke-linecap:round;stroke-linejoin:round"></path><path d="M186.84,201.5a7.37,7.37,0,0,1,0,3.13c-.35,2.06-2.06,2.78.41,3.15" style="fill:none;stroke:#263238;stroke-linecap:round;stroke-linejoin:round"></path><path d="M185.16,211s4,1.94,9-3.36" style="fill:none;stroke:#263238;stroke-linecap:round;stroke-linejoin:round"></path><path d="M179.55,204.56s1.63-2.6,5.07-1.12" style="fill:none;stroke:#263238;stroke-linecap:round;stroke-linejoin:round"></path><path d="M190.92,202.82s4-3.28,7.14-.78" style="fill:none;stroke:#263238;stroke-linecap:round;stroke-linejoin:round"></path><path d="M189.66,196.69a5.21,5.21,0,0,1,7-1.2" style="fill:none;stroke:none;stroke-linecap:round;stroke-linejoin:round"></path><circle cx="290.51" cy="191.84" r="92.19" transform="translate(-46.52 104.59) rotate(-18.93)" style="fill:#39c2db"></circle><g style="clip-path:url(#freepik--clip-path-11--inject-3)"><polygon points="278.02 150.9 287.42 152.85 290.62 156.17 294.79 156.81 296.12 160.78 295.15 163.46 292.3 164.76 285.32 163.62 285.13 162.77 288.43 160.47 286.16 156.26 279.92 155.41 276.59 152.56 278.02 150.9" style="fill:#0FB680"></polygon><path d="M353.75,237.62l-7.45-1.25-9-1.14-6.62,1.47-6.48.09-6.5,3-3.8,1.07-2.35.52L307.64,245l-3.89,2.66-6.57-2.35.17-6.31-4-.69-4.27,1L288,237.43l-.42-3.94-2-1.81-2.9,1.09-.38,2.33-3.58,1L274.73,233l-2.42-4.85,1.88-6.69,6.29-.95,2,1.12,2.56-.57,2.78-2.63,3,.23,5.32,5.77,1.45-.54-1.52-4.82-1.85-2.28-.48-4.15,7.15-5.18-.69-8.13,2.8-3.54,1.69-5.53,2-.9,4.2-4.3-.17-1.75-3.37,1-1-1.57-2.35.53-3.44,1.66,1.09-3.16,7-3.8,1.29-2.3,4,4,2.35,1.49,2.8-1.52-1.9-2.49L312,175l-6.4-4.63-6.15-2.45-5.31.29-3.14-2-3.6-.09-.24,1,.95,6.28,1.33,1.95-.41,7.26L284,180l0-3.13-5-1.14-2.45-1.92-.11-5.58,5.19-5.86-.71-5.22-2.3.74-1.92-1.59-1.35-3.07-1.55.12-.09,3.61-2.26.95-2.72-7.24-2-.69-3.27-.62-3,2.47L265.7,155l1.66,3.44-9-4.06-6.62-4.58-1.71-5.67-5.93-.48-3.65,3.73a33.93,33.93,0,0,1-2.83,2.42,36.92,36.92,0,0,1-4.94,2l0,3.82-4.87,1.31.95,2.25,8.19-.47,5.05,3.58,1.66,7.48-.88,7.14,2,7-3.66,11.8,2.18,15.87,3.91,8.55,4.3,6.22,3.3-.29L253,222.8l-2.28-2.18-2.11-4.46,1.83-.86,4.7,7,3.65,6.36,1.23,5.55,5.15,4,8.45,3.73,11.77.52,4.13,2.45,3.32,2.85,4.37,1.49,5,.24,4.65-1.26s.26,2.19.5,3.25-1.95,5.37-1.95,5.37l-1.4,4.79,2.76,4.32,5.12.88,8.14,5.36,3.27.62.72,3.2.7,1.41a91.78,91.78,0,0,0,40.11-31l-.23-1.58L368,233.12l-3.2-1.31Z" style="fill:#0FB680"></path><path d="M357.23,148.33,354,144.79l-4-4-2.28-6.21,4-.22-.26-2.18-2.83.4,2.11-1.59,2.24-2.06-.48-2.14-3.32-2.84-1.57-4.48a92.25,92.25,0,0,0-111.3-2.14l5.7,2.4-2.14,4.51L236,126l.85,5.87-1.57,1-1.61,2.82,1.07,3.8,3.72-.38-.69,4,3.63-.81,4.44-9.27-.11-3.56,5.88-1.76.93-2.89,6.05-2-.17-3.77,4.44-1.21a23.13,23.13,0,0,1,3.47-2.57,26.71,26.71,0,0,1,3.86.27l3.78,1.85,4.48-1,3.32-3.2,5-.67a5.46,5.46,0,0,0,2.54.34c1.07-.24,3.94-2.45,3.94-2.45l7.05,2.47,3,1.36.71,3.2,3.3-.29.64-2.15,3.06.66.17,1.76-6,3.13,4.67,3.89,8.64,2.56,4.15,3.56,4.8-.61.59-2.37,1.61-.81-6.5-3-3.51.33,2.59-1.47-3.37-3.06,3.58-1,5.27,1.52,2.21,4.89,3,2.25,3.3,5.77,5.46,2.37,1.56,7.05,5.63,2.12.3,2.39,0,2.92,2.14,3.56.85,1.83,3.77-.17.91-4Z" style="fill:#0FB680"></path><path d="M355.23,126.19l.27,1.23-.31,3.65,1.31,2.85,2.54.33.9,4.06-2.8-.5,1.92,11.68-1.52,5.27,3,5.6,3.34,1.94,2.56,11.54,4.77,8.35,4.51,6.17,5.2.19.76-4.65.57-.7a93.36,93.36,0,0,0-1.79-11.34A91.78,91.78,0,0,0,355.23,126.19Z" style="fill:#0FB680"></path><polygon points="305.6 135.81 290.12 132.75 283.98 134.34 283.38 138.73 280.2 136.52 275.74 138.63 276.88 145.78 281.34 147.7 283.22 143.02 287.13 145.51 295.03 149.81 297.69 155.72 304.81 161.54 313.45 158.05 312.52 154.89 309.79 151.69 307.47 143.24 308.8 139.13 305.6 135.81" style="fill:#0FB680"></polygon><polygon points="318.17 137.95 314.78 137.81 312.52 140.77 315.39 146.63 318.17 146.02 318.17 137.95" style="fill:#0FB680"></polygon><polygon points="338.94 137.6 330.82 135.37 328.76 133.13 327.19 134.15 329.63 138.09 332.15 143.36 335.64 143.93 336.09 142.94 333.45 140.16 339.48 141.06 338.94 137.6" style="fill:#0FB680"></polygon><polygon points="293.69 228.55 293.03 229.59 299.86 230.09 303.09 232.51 307.24 232.04 308.22 229.36 303.11 229.6 293.69 228.55" style="fill:#0FB680"></polygon><polygon points="313.6 228.39 309.4 230.66 310.42 232.23 315.98 231 316.66 229.05 314.79 229.69 313.6 228.39" style="fill:#0FB680"></polygon><polygon points="278.02 150.9 287.42 152.85 290.62 156.17 294.79 156.81 296.12 160.78 295.15 163.46 292.3 164.76 285.32 163.62 285.13 162.77 288.43 160.47 286.16 156.26 279.92 155.41 276.59 152.56 278.02 150.9" style="fill:none;stroke:none;stroke-miterlimit:10"></polygon><path d="M353.75,237.62l-7.45-1.25-9-1.14-6.62,1.47-6.48.09-6.5,3-3.8,1.07-2.35.52L307.64,245l-3.89,2.66-6.57-2.35.17-6.31-4-.69-4.27,1L288,237.43l-.42-3.94-2-1.81-2.9,1.09-.38,2.33-3.58,1L274.73,233l-2.42-4.85,1.88-6.69,6.29-.95,2,1.12,2.56-.57,2.78-2.63,3,.23,5.32,5.77,1.45-.54-1.52-4.82-1.85-2.28-.48-4.15,7.15-5.18-.69-8.13,2.8-3.54,1.69-5.53,2-.9,4.2-4.3-.17-1.75-3.37,1-1-1.57-2.35.53-3.44,1.66,1.09-3.16,7-3.8,1.29-2.3,4,4,2.35,1.49,2.8-1.52-1.9-2.49L312,175l-6.4-4.63-6.15-2.45-5.31.29-3.14-2-3.6-.09-.24,1,.95,6.28,1.33,1.95-.41,7.26L284,180l0-3.13-5-1.14-2.45-1.92-.11-5.58,5.19-5.86-.71-5.22-2.3.74-1.92-1.59-1.35-3.07-1.55.12-.09,3.61-2.26.95-2.72-7.24-2-.69-3.27-.62-3,2.47L265.7,155l1.66,3.44-9-4.06-6.62-4.58-1.71-5.67-5.93-.48-3.65,3.73a33.93,33.93,0,0,1-2.83,2.42,36.92,36.92,0,0,1-4.94,2l0,3.82-4.87,1.31.95,2.25,8.19-.47,5.05,3.58,1.66,7.48-.88,7.14,2,7-3.66,11.8,2.18,15.87,3.91,8.55,4.3,6.22,3.3-.29L253,222.8l-2.28-2.18-2.11-4.46,1.83-.86,4.7,7,3.65,6.36,1.23,5.55,5.15,4,8.45,3.73,11.77.52,4.13,2.45,3.32,2.85,4.37,1.49,5,.24,4.65-1.26s.26,2.19.5,3.25-1.95,5.37-1.95,5.37l-1.4,4.79,2.76,4.32,5.12.88,8.14,5.36,3.27.62.72,3.2.7,1.41a91.78,91.78,0,0,0,40.11-31l-.23-1.58L368,233.12l-3.2-1.31Z" style="fill:none;stroke:none;stroke-miterlimit:10"></path><path d="M357.23,148.33,354,144.79l-4-4-2.28-6.21,4-.22-.26-2.18-2.83.4,2.11-1.59,2.24-2.06-.48-2.14-3.32-2.84-1.57-4.48a92.25,92.25,0,0,0-111.3-2.14l5.7,2.4-2.14,4.51L236,126l.85,5.87-1.57,1-1.61,2.82,1.07,3.8,3.72-.38-.69,4,3.63-.81,4.44-9.27-.11-3.56,5.88-1.76.93-2.89,6.05-2-.17-3.77,4.44-1.21a23.13,23.13,0,0,1,3.47-2.57,26.71,26.71,0,0,1,3.86.27l3.78,1.85,4.48-1,3.32-3.2,5-.67a5.46,5.46,0,0,0,2.54.34c1.07-.24,3.94-2.45,3.94-2.45l7.05,2.47,3,1.36.71,3.2,3.3-.29.64-2.15,3.06.66.17,1.76-6,3.13,4.67,3.89,8.64,2.56,4.15,3.56,4.8-.61.59-2.37,1.61-.81-6.5-3-3.51.33,2.59-1.47-3.37-3.06,3.58-1,5.27,1.52,2.21,4.89,3,2.25,3.3,5.77,5.46,2.37,1.56,7.05,5.63,2.12.3,2.39,0,2.92,2.14,3.56.85,1.83,3.77-.17.91-4Z" style="fill:none;stroke:none;stroke-miterlimit:10"></path><path d="M355.23,126.19l.27,1.23-.31,3.65,1.31,2.85,2.54.33.9,4.06-2.8-.5,1.92,11.68-1.52,5.27,3,5.6,3.34,1.94,2.56,11.54,4.77,8.35,4.51,6.17,5.2.19.76-4.65.57-.7a93.36,93.36,0,0,0-1.79-11.34A91.78,91.78,0,0,0,355.23,126.19Z" style="fill:none;stroke:#one;stroke-miterlimit:10"></path><polygon points="305.6 135.81 290.12 132.75 283.98 134.34 283.38 138.73 280.2 136.52 275.74 138.63 276.88 145.78 281.34 147.7 283.22 143.02 287.13 145.51 295.03 149.81 297.69 155.72 304.81 161.54 313.45 158.05 312.52 154.89 309.79 151.69 307.47 143.24 308.8 139.13 305.6 135.81" style="fill:none;stroke:none;stroke-miterlimit:10"></polygon><polygon points="318.17 137.95 314.78 137.81 312.52 140.77 315.39 146.63 318.17 146.02 318.17 137.95" style="fill:none;stroke:none;stroke-miterlimit:10"></polygon><polygon points="338.94 137.6 330.82 135.37 328.76 133.13 327.19 134.15 329.63 138.09 332.15 143.36 335.64 143.93 336.09 142.94 333.45 140.16 339.48 141.06 338.94 137.6" style="fill:none;stroke:none;stroke-miterlimit:10"></polygon><polygon points="293.69 228.55 293.03 229.59 299.86 230.09 303.09 232.51 307.24 232.04 308.22 229.36 303.11 229.6 293.69 228.55" style="fill:none;stroke:none;stroke-miterlimit:10"></polygon><polygon points="313.6 228.39 309.4 230.66 310.42 232.23 315.98 231 316.66 229.05 314.79 229.69 313.6 228.39" style="fill:none;stroke:none;stroke-miterlimit:10"></polygon><path d="M318.86,102.54a92.9,92.9,0,0,1-110.4,131.22,92.86,92.86,0,1,0,110.4-131.22Z" style="stroke:none;stroke-linecap:round;stroke-linejoin:round;opacity:0.2"></path></g><circle cx="290.51" cy="191.84" r="92.19" transform="translate(-46.52 104.59) rotate(-18.93)" style="fill:none;stroke:none;stroke-miterlimit:10"></circle><circle cx="290.51" cy="191.84" r="92.19" transform="translate(-46.52 104.59) rotate(-18.93)" style="fill:none;stroke:none;stroke-miterlimit:10;opacity:0.18"></circle><path d="M198.55,220.54s-11.55-.21-17.87,4-4.94,7.48-3.11,10.91,6.85,4,15.74,1.83,19.94-8.05,26.87-12.36,29.21-28.64,29.21-28.64l5.69-3.18s6.49-1.44,8-2.21-.57-1.58-1.79-1.31-5.14.62-5.14.62,7.15-3.32,7.69-4.72.36-2.21-1.29-1-7.32,2.91-7.32,2.91,8.66-6.26,8.84-7.37-.41-1.83-1.65-.7-9.19,5.6-9.19,5.6l5.69-7.58s.18-2.27-2-.24a56.12,56.12,0,0,1-5.42,4.86,35.37,35.37,0,0,1-4.09,1.76,5.11,5.11,0,0,1,.54-3.32c.81-1.24,2.53-2,.93-4.46-.45-.7-1,.22-1.35,1.57s-4.13,5.4-4.15,6.25a60.78,60.78,0,0,0,1.64,6.45S231,203.54,224.17,209.31s-8.91,6.88-8.91,6.88Z" style="fill:#fff5f2"></path><g style="clip-path:url(#freepik--clip-path-12--inject-3)"><path d="M193.31,237.25c8.89-2.18,19.94-8.05,26.87-12.36,5.74-3.57,22-20.88,27.43-26.71l-.1-.42s-18.71,17.91-26.67,23.08-25.47,12.34-31.44,13.94a31.88,31.88,0,0,1-11.83.64C179.39,238.85,184.42,239.44,193.31,237.25Z" style="fill:#263238;opacity:0.30000000000000004"></path></g><path d="M198.55,220.54s-11.55-.21-17.87,4-4.94,7.48-3.11,10.91,6.85,4,15.74,1.83,19.94-8.05,26.87-12.36,29.21-28.64,29.21-28.64l5.69-3.18s6.49-1.44,8-2.21-.57-1.58-1.79-1.31-5.14.62-5.14.62,7.15-3.32,7.69-4.72.36-2.21-1.29-1-7.32,2.91-7.32,2.91,8.66-6.26,8.84-7.37-.41-1.83-1.65-.7-9.19,5.6-9.19,5.6l5.69-7.58s.18-2.27-2-.24a56.12,56.12,0,0,1-5.42,4.86,35.37,35.37,0,0,1-4.09,1.76,5.11,5.11,0,0,1,.54-3.32c.81-1.24,2.53-2,.93-4.46-.45-.7-1,.22-1.35,1.57s-4.13,5.4-4.15,6.25a60.78,60.78,0,0,0,1.64,6.45S231,203.54,224.17,209.31s-8.91,6.88-8.91,6.88Z" style="fill:none;stroke:none;stroke-linecap:round;stroke-linejoin:round"></path><path d="M203,410.9l-5.15,2.64-4.69-5.76c-1.24,3.32-4.22,7-4.14,8.33.1,1.68,8.7,7.05,11.81,10.38s9.23,5.41,9.77,3.57-4.95-7-5.88-11.86C204.35,416.41,203.69,413.8,203,410.9Z" style="fill:#263238;stroke:none;stroke-linecap:round;stroke-linejoin:round"></path></g></svg>